<svg version="1.1" id="Layer_1" xmlns="http://www.w3.org/2000/svg" xmlns:xlink="http://www.w3.org/1999/xlink" x="0px" y="0px"
	 width="100%" viewBox="0 0 500 500" enable-background="new 0 0 500 500" xml:space="preserve">
<path fill="#000000" opacity="1.000000" stroke="none" 
	d="
M243.000000,501.000000 
	C162.000015,501.000000 81.500038,501.000000 1.000043,501.000000 
	C1.000029,334.333405 1.000029,167.666779 1.000014,1.000133 
	C167.666565,1.000088 334.333130,1.000088 500.999756,1.000044 
	C500.999847,167.666519 500.999847,334.333038 500.999939,500.999786 
	C415.166656,501.000000 329.333344,501.000000 243.000000,501.000000 
M278.895477,167.492630 
	C278.596588,167.390472 278.297699,167.288330 277.560974,167.035950 
	C277.560974,167.035950 277.102203,166.974274 276.896301,166.481964 
	C276.600281,166.300674 276.304260,166.119385 275.996918,165.994232 
	C275.996918,165.994232 276.049591,165.971817 275.707520,165.355545 
	C272.730164,163.867645 269.752777,162.379745 266.775421,160.891846 
	C266.597443,161.193619 266.419495,161.495392 266.241547,161.797165 
	C267.798218,163.211838 269.354889,164.626495 271.124451,166.588989 
	C271.477112,167.050446 271.829773,167.511902 272.125641,168.501434 
	C272.408600,168.693680 272.691559,168.885941 272.987396,169.012405 
	C272.987396,169.012405 272.920532,169.007660 273.087006,169.526169 
	C273.383240,169.720322 273.679474,169.914459 274.033966,170.547531 
	C274.033966,170.547531 274.144501,170.976303 274.077515,171.526443 
	C274.373199,171.726868 274.668915,171.927277 274.980408,172.024750 
	C274.980408,172.024750 274.877411,172.009109 275.067017,172.536804 
	C275.375732,172.730927 275.684479,172.925049 275.976440,173.031433 
	C275.976440,173.031433 275.888763,173.048355 275.981842,173.732834 
	C276.644684,174.863297 277.307526,175.993759 278.025787,177.549332 
	C278.025787,177.549332 278.159149,177.956787 278.107056,178.502686 
	C278.394257,178.710861 278.681488,178.919052 279.000397,179.741760 
	C279.062683,180.144836 279.124969,180.547928 279.156555,181.454300 
	C279.410461,181.656876 279.664398,181.859467 280.004822,182.516495 
	C280.004822,182.516495 280.155426,182.953918 280.118164,183.497498 
	C280.401093,183.709885 280.683990,183.922272 281.022461,184.568069 
	C281.022461,184.568069 281.152985,184.985077 281.014069,185.758865 
	C281.665070,187.883469 282.316071,190.008072 283.032379,192.570419 
	C283.032379,192.570419 283.168732,192.991501 283.024933,193.919754 
	C282.406311,201.281738 281.787689,208.643738 280.869995,216.629959 
	C275.904541,223.625015 270.033478,230.223465 261.402313,231.554306 
	C252.914047,232.863113 243.952499,232.989441 235.433701,231.860626 
	C209.491989,228.423080 189.202530,215.187622 174.330185,193.775726 
	C170.717834,188.574982 167.924744,182.805206 164.754959,177.297073 
	C164.100235,181.679169 163.547424,186.126556 164.693710,190.081451 
	C168.086823,201.788330 171.937607,213.376160 176.002655,224.871475 
	C181.950546,241.691177 192.623627,255.101196 207.355270,264.979523 
	C226.048096,277.513977 246.783203,281.522491 268.749786,276.811005 
	C284.877655,273.351807 298.347198,265.401794 306.395874,250.138245 
	C312.869049,237.862518 313.639557,225.018631 309.941376,211.885834 
	C304.956146,194.182480 295.771851,179.283066 279.888336,168.482132 
	C279.595459,168.298203 279.302551,168.114273 279.002075,167.991806 
	C279.002075,167.991806 279.062622,167.978760 278.895477,167.492630 
M237.008377,214.987732 
	C237.008377,214.987732 237.090729,214.987946 236.920273,214.464310 
	C236.615768,214.277176 236.311249,214.090057 236.015961,213.981277 
	C236.015961,213.981277 236.094269,213.971924 235.920441,213.470901 
	C235.612091,213.372299 235.303741,213.273682 234.367615,212.871429 
	C233.034439,211.216232 231.738846,209.529022 230.361603,207.911331 
	C224.036789,200.482269 220.052551,191.849045 219.109711,182.254425 
	C218.156357,172.552734 218.255386,162.741989 218.033081,152.975845 
	C217.850922,144.973694 214.375488,138.739105 207.809921,134.471878 
	C196.389847,127.049492 180.326599,131.529373 174.978333,144.049240 
	C171.145508,153.021545 173.192581,161.751450 175.833878,170.447067 
	C180.453079,185.654297 189.976212,197.490570 202.610443,206.576462 
	C208.334076,210.692612 215.396912,212.946564 222.065399,216.537735 
	C222.379196,216.637100 222.692993,216.736450 223.626022,216.956360 
	C224.045837,216.981247 224.465668,217.006134 225.084259,217.520233 
	C225.392654,217.620911 225.701050,217.721588 226.621689,217.956329 
	C227.038681,217.982574 227.455658,218.008820 228.218246,218.655777 
	C229.140076,218.713684 230.061905,218.771591 231.612671,218.959167 
	C232.039978,218.984680 232.467300,219.010178 233.290802,219.676270 
	C234.525711,219.730103 235.760620,219.783936 237.476852,219.979965 
	C237.641190,220.011292 237.805527,220.042603 238.416290,220.723328 
	C240.596024,220.821091 242.775772,220.918854 246.367584,221.079941 
	C242.790329,218.870209 240.415237,217.403076 238.016968,215.992569 
	C238.016968,215.992569 238.077972,215.987717 237.905380,215.472443 
	C237.606476,215.283417 237.307571,215.094406 237.008377,214.987732 
M320.123260,258.250427 
	C326.479492,252.470245 330.287628,245.126572 333.011169,237.136627 
	C337.664032,223.486816 338.694611,209.480759 338.144745,195.104980 
	C337.576324,180.243546 335.905609,165.634567 330.832703,151.677444 
	C328.761841,145.979965 326.021088,139.675400 321.659424,135.833008 
	C311.686920,127.047798 295.973206,130.140045 288.375397,141.178696 
	C282.774658,149.315842 283.998810,156.464508 292.022125,162.574829 
	C292.547882,162.975250 292.973145,163.504974 293.466614,163.950790 
	C307.059418,176.230331 316.876495,190.949005 321.288788,208.818100 
	C323.811401,219.034271 326.418121,229.359772 323.149323,240.079788 
	C321.366882,245.925217 320.323242,251.995911 318.428436,258.179382 
	C318.371521,258.607513 318.314575,259.035614 318.257629,259.463776 
	C318.708374,259.203705 319.159119,258.943634 320.123260,258.250427 
z"/>
<path fill="#50AC9E" opacity="1.000000" stroke="none" 
	d="
M279.187225,180.951004 
	C279.124969,180.547928 279.062683,180.144836 278.873230,179.224060 
	C278.573822,178.438187 278.378174,178.188324 278.159149,177.956787 
	C278.159149,177.956787 278.025787,177.549332 277.985321,176.976791 
	C277.259491,175.285614 276.574127,174.166992 275.888763,173.048355 
	C275.888763,173.048355 275.976440,173.031433 275.818085,172.871002 
	C275.398956,172.476746 275.138184,172.242935 274.877411,172.009109 
	C274.877411,172.009109 274.980408,172.024750 274.854675,171.870895 
	C274.552460,171.455658 274.357635,171.208740 274.144501,170.976303 
	C274.144501,170.976303 274.033966,170.547531 273.850769,170.124756 
	C273.418579,169.470520 273.169556,169.239090 272.920532,169.007660 
	C272.920532,169.007660 272.987396,169.012405 272.871643,168.845505 
	C272.587921,168.424713 272.396759,168.189636 272.182434,167.973373 
	C271.829773,167.511902 271.477112,167.050446 271.445679,166.305725 
	C273.194489,166.005569 274.622040,165.988693 276.049591,165.971817 
	C276.049591,165.971817 275.996918,165.994232 276.163879,166.160645 
	C276.587952,166.542801 276.845093,166.758530 277.102203,166.974274 
	C277.102203,166.974274 277.560974,167.035950 277.943726,167.261047 
	C278.550812,167.681763 278.796204,167.845963 279.062622,167.978760 
	C279.062622,167.978760 279.002075,167.991806 279.161316,168.157761 
	C279.571289,168.542450 279.821960,168.761200 280.072662,168.979935 
	C295.771851,179.283066 304.956146,194.182480 309.941376,211.885834 
	C313.639557,225.018631 312.869049,237.862518 306.395874,250.138245 
	C298.347198,265.401794 284.877655,273.351807 268.749786,276.811005 
	C246.783203,281.522491 226.048096,277.513977 207.355270,264.979523 
	C192.623627,255.101196 181.950546,241.691177 176.002655,224.871475 
	C171.937607,213.376160 168.086823,201.788330 164.693710,190.081451 
	C163.547424,186.126556 164.100235,181.679169 164.754959,177.297073 
	C167.924744,182.805206 170.717834,188.574982 174.330185,193.775726 
	C189.202530,215.187622 209.491989,228.423080 235.433701,231.860626 
	C243.952499,232.989441 252.914047,232.863113 261.402313,231.554306 
	C270.033478,230.223465 275.904541,223.625015 281.294739,216.150360 
	C282.540955,214.514893 284.080994,213.348816 284.064758,212.204849 
	C283.973755,205.797455 283.507111,199.395386 283.168762,192.991501 
	C283.168732,192.991501 283.032379,192.570419 283.015350,192.004059 
	C282.383209,189.286819 281.768097,187.135941 281.152985,184.985077 
	C281.152985,184.985077 281.022461,184.568069 280.883789,184.138855 
	C280.573120,183.438553 280.376556,183.186661 280.155426,182.953918 
	C280.155426,182.953918 280.004822,182.516495 279.870850,182.086853 
	C279.585754,181.396881 279.402527,181.161484 279.187225,180.951004 
z"/>
<path fill="#50AC9F" opacity="1.000000" stroke="none" 
	d="
M237.969879,220.073929 
	C237.805527,220.042603 237.641190,220.011292 237.040787,219.698914 
	C235.368011,219.290482 234.131317,219.163086 232.894608,219.035690 
	C232.467300,219.010178 232.039978,218.984680 231.007553,218.750534 
	C229.559174,218.372955 228.715912,218.204010 227.872650,218.035049 
	C227.455658,218.008820 227.038681,217.982574 226.141998,217.737854 
	C225.425171,217.321899 225.166229,217.159119 224.885483,217.031021 
	C224.465668,217.006134 224.045837,216.981247 223.136108,216.746552 
	C222.401764,216.340240 222.137100,216.176437 221.852203,216.045319 
	C215.396912,212.946564 208.334076,210.692612 202.610443,206.576462 
	C189.976212,197.490570 180.453079,185.654297 175.833878,170.447067 
	C173.192581,161.751450 171.145508,153.021545 174.978333,144.049240 
	C180.326599,131.529373 196.389847,127.049492 207.809921,134.471878 
	C214.375488,138.739105 217.850922,144.973694 218.033081,152.975845 
	C218.255386,162.741989 218.156357,172.552734 219.109711,182.254425 
	C220.052551,191.849045 224.036789,200.482269 230.361603,207.911331 
	C231.738846,209.529022 233.034439,211.216232 234.851990,213.173218 
	C235.568924,213.671280 235.821548,213.836929 236.094269,213.971924 
	C236.094269,213.971924 236.015961,213.981277 236.172302,214.142365 
	C236.582672,214.531631 236.836700,214.759796 237.090729,214.987946 
	C237.090729,214.987946 237.008377,214.987732 237.165115,215.147995 
	C237.573898,215.534744 237.825928,215.761230 238.077972,215.987717 
	C238.077972,215.987717 238.016968,215.992569 238.017929,216.378113 
	C238.002563,217.867081 237.986221,218.970505 237.969879,220.073929 
z"/>
<path fill="#51AB9E" opacity="1.000000" stroke="none" 
	d="
M318.946381,257.964996 
	C320.323242,251.995911 321.366882,245.925217 323.149323,240.079788 
	C326.418121,229.359772 323.811401,219.034271 321.288788,208.818100 
	C316.876495,190.949005 307.059418,176.230331 293.466614,163.950790 
	C292.973145,163.504974 292.547882,162.975250 292.022125,162.574829 
	C283.998810,156.464508 282.774658,149.315842 288.375397,141.178696 
	C295.973206,130.140045 311.686920,127.047798 321.659424,135.833008 
	C326.021088,139.675400 328.761841,145.979965 330.832703,151.677444 
	C335.905609,165.634567 337.576324,180.243546 338.144745,195.104980 
	C338.694611,209.480759 337.664032,223.486816 333.011169,237.136627 
	C330.287628,245.126572 326.479492,252.470245 319.704773,258.283569 
	C319.286316,258.316711 318.946381,257.964996 318.946381,257.964996 
z"/>
<path fill="#58A195" opacity="1.000000" stroke="none" 
	d="
M283.096863,193.455627 
	C283.507111,199.395386 283.973755,205.797455 284.064758,212.204849 
	C284.080994,213.348816 282.540955,214.514893 281.444275,215.838226 
	C281.787689,208.643738 282.406311,201.281738 283.096863,193.455627 
z"/>
<path fill="#58A195" opacity="1.000000" stroke="none" 
	d="
M238.193085,220.398621 
	C237.986221,218.970505 238.002563,217.867081 238.029526,216.349792 
	C240.415237,217.403076 242.790329,218.870209 246.367584,221.079941 
	C242.775772,220.918854 240.596024,220.821091 238.193085,220.398621 
z"/>
<path fill="#58A195" opacity="1.000000" stroke="none" 
	d="
M275.878540,165.663681 
	C274.622040,165.988693 273.194489,166.005569 271.339233,166.031799 
	C269.354889,164.626495 267.798218,163.211838 266.241547,161.797165 
	C266.419495,161.495392 266.597443,161.193619 266.775421,160.891846 
	C269.752777,162.379745 272.730164,163.867645 275.878540,165.663681 
z"/>
<path fill="#58A195" opacity="1.000000" stroke="none" 
	d="
M281.083527,185.371979 
	C281.768097,187.135941 282.383209,189.286819 282.982697,191.785172 
	C282.316071,190.008072 281.665070,187.883469 281.083527,185.371979 
z"/>
<path fill="#58A195" opacity="1.000000" stroke="none" 
	d="
M233.092712,219.355988 
	C234.131317,219.163086 235.368011,219.290482 236.800125,219.627838 
	C235.760620,219.783936 234.525711,219.730103 233.092712,219.355988 
z"/>
<path fill="#58A195" opacity="1.000000" stroke="none" 
	d="
M275.935303,173.390594 
	C276.574127,174.166992 277.259491,175.285614 277.957581,176.764236 
	C277.307526,175.993759 276.644684,174.863297 275.935303,173.390594 
z"/>
<path fill="#58A195" opacity="1.000000" stroke="none" 
	d="
M228.045441,218.345413 
	C228.715912,218.204010 229.559174,218.372955 230.693085,218.685699 
	C230.061905,218.771591 229.140076,218.713684 228.045441,218.345413 
z"/>
<path fill="#51AB9E" opacity="1.000000" stroke="none" 
	d="
M319.448090,258.500153 
	C319.159119,258.943634 318.708374,259.203705 318.257629,259.463745 
	C318.314575,259.035614 318.371521,258.607513 318.687408,258.072205 
	C318.946381,257.964996 319.286316,258.316711 319.448090,258.500153 
z"/>
<path fill="#58A195" opacity="1.000000" stroke="none" 
	d="
M274.972229,172.272949 
	C275.138184,172.242935 275.398956,172.476746 275.826477,172.914856 
	C275.684479,172.925049 275.375732,172.730927 274.972229,172.272949 
z"/>
<path fill="#58A195" opacity="1.000000" stroke="none" 
	d="
M278.133118,178.229736 
	C278.378174,178.188324 278.573822,178.438187 278.857361,178.916809 
	C278.681488,178.919052 278.394257,178.710861 278.133118,178.229736 
z"/>
<path fill="#58A195" opacity="1.000000" stroke="none" 
	d="
M279.171875,181.202652 
	C279.402527,181.161484 279.585754,181.396881 279.827606,181.859634 
	C279.664398,181.859467 279.410461,181.656876 279.171875,181.202652 
z"/>
<path fill="#58A195" opacity="1.000000" stroke="none" 
	d="
M280.136780,183.225708 
	C280.376556,183.186661 280.573120,183.438553 280.856018,183.922150 
	C280.683990,183.922272 280.401093,183.709885 280.136780,183.225708 
z"/>
<path fill="#58A195" opacity="1.000000" stroke="none" 
	d="
M274.111023,171.251373 
	C274.357635,171.208740 274.552460,171.455658 274.846771,171.922363 
	C274.668915,171.927277 274.373199,171.726868 274.111023,171.251373 
z"/>
<path fill="#58A195" opacity="1.000000" stroke="none" 
	d="
M273.003784,169.266907 
	C273.169556,169.239090 273.418579,169.470520 273.821655,169.905289 
	C273.679474,169.914459 273.383240,169.720322 273.003784,169.266907 
z"/>
<path fill="#58A195" opacity="1.000000" stroke="none" 
	d="
M236.007355,213.721405 
	C235.821548,213.836929 235.568924,213.671280 235.165878,213.325043 
	C235.303741,213.273682 235.612091,213.372299 236.007355,213.721405 
z"/>
<path fill="#58A195" opacity="1.000000" stroke="none" 
	d="
M237.005493,214.726135 
	C236.836700,214.759796 236.582672,214.531631 236.167694,214.103210 
	C236.311249,214.090057 236.615768,214.277176 237.005493,214.726135 
z"/>
<path fill="#58A195" opacity="1.000000" stroke="none" 
	d="
M237.991669,215.730072 
	C237.825928,215.761230 237.573898,215.534744 237.165253,215.106827 
	C237.307571,215.094406 237.606476,215.283417 237.991669,215.730072 
z"/>
<path fill="#58A195" opacity="1.000000" stroke="none" 
	d="
M221.958801,216.291534 
	C222.137100,216.176437 222.401764,216.340240 222.826508,216.686279 
	C222.692993,216.736450 222.379196,216.637100 221.958801,216.291534 
z"/>
<path fill="#58A195" opacity="1.000000" stroke="none" 
	d="
M279.980499,168.731033 
	C279.821960,168.761200 279.571289,168.542450 279.165131,168.127029 
	C279.302551,168.114273 279.595459,168.298203 279.980499,168.731033 
z"/>
<path fill="#58A195" opacity="1.000000" stroke="none" 
	d="
M224.984863,217.275635 
	C225.166229,217.159119 225.425171,217.321899 225.835876,217.670807 
	C225.701050,217.721588 225.392654,217.620911 224.984863,217.275635 
z"/>
<path fill="#58A195" opacity="1.000000" stroke="none" 
	d="
M272.154053,168.237396 
	C272.396759,168.189636 272.587921,168.424713 272.865234,168.878403 
	C272.691559,168.885941 272.408600,168.693680 272.154053,168.237396 
z"/>
<path fill="#58A195" opacity="1.000000" stroke="none" 
	d="
M278.979065,167.735687 
	C278.796204,167.845963 278.550812,167.681763 278.162659,167.336151 
	C278.297699,167.288330 278.596588,167.390472 278.979065,167.735687 
z"/>
<path fill="#58A195" opacity="1.000000" stroke="none" 
	d="
M276.999268,166.728119 
	C276.845093,166.758530 276.587952,166.542801 276.169556,166.132568 
	C276.304260,166.119385 276.600281,166.300674 276.999268,166.728119 
z"/>
</svg>