<svg width="13" height="13" viewBox="0 0 13 13" fill="none" xmlns="http://www.w3.org/2000/svg">
<path d="M4.40401 9.97368C4.40401 10.0226 4.34921 10.0617 4.28011 10.0617C4.20148 10.069 4.14668 10.0299 4.14668 9.97368C4.14668 9.92481 4.20148 9.88571 4.27058 9.88571C4.34206 9.87838 4.40401 9.91748 4.40401 9.97368ZM3.663 9.86372C3.64632 9.91259 3.69397 9.9688 3.76545 9.98346C3.8274 10.0079 3.89888 9.98346 3.91318 9.93458C3.92748 9.88571 3.8822 9.8295 3.81072 9.80751C3.74877 9.7904 3.67968 9.81484 3.663 9.86372ZM4.71614 9.82217C4.64705 9.83928 4.59939 9.88571 4.60654 9.94192C4.61369 9.99079 4.67564 10.0226 4.74712 10.0055C4.81622 9.98835 4.86387 9.94192 4.85672 9.89304C4.84957 9.84661 4.78524 9.81484 4.71614 9.82217ZM6.28395 0.457764C2.97917 0.457764 0.451141 3.03102 0.451141 6.42049C0.451141 9.13059 2.11425 11.4497 4.48979 12.2659C4.79477 12.3221 4.90199 12.1291 4.90199 11.9702C4.90199 11.8187 4.89484 10.9829 4.89484 10.4698C4.89484 10.4698 3.22697 10.8363 2.87671 9.74153C2.87671 9.74153 2.60509 9.0304 2.21433 8.84712C2.21433 8.84712 1.66869 8.46345 2.25245 8.47078C2.25245 8.47078 2.84574 8.51966 3.17216 9.10127C3.69397 10.0446 4.56842 9.7733 4.90914 9.61201C4.96394 9.22101 5.11882 8.94976 5.29037 8.78847C3.95845 8.63696 2.61462 8.43902 2.61462 6.08814C2.61462 5.41611 2.7957 5.07887 3.17693 4.64878C3.11498 4.48993 2.91245 3.83501 3.23888 2.98948C3.73686 2.83063 4.88293 3.64929 4.88293 3.64929C5.35947 3.51244 5.87174 3.44157 6.37926 3.44157C6.88677 3.44157 7.39904 3.51244 7.87558 3.64929C7.87558 3.64929 9.02165 2.82819 9.51963 2.98948C9.84606 3.83746 9.64353 4.48993 9.58158 4.64878C9.96281 5.08132 10.1963 5.41855 10.1963 6.08814C10.1963 8.44635 8.79291 8.63451 7.46099 8.78847C7.6802 8.98153 7.86605 9.34809 7.86605 9.92237C7.86605 10.7459 7.8589 11.7649 7.8589 11.9653C7.8589 12.1242 7.9685 12.3172 8.27111 12.261C10.6538 11.4497 12.2692 9.13059 12.2692 6.42049C12.2692 3.03102 9.58873 0.457764 6.28395 0.457764ZM2.76711 8.88622C2.73613 8.91066 2.74328 8.96686 2.78379 9.0133C2.82191 9.05239 2.87671 9.0695 2.90769 9.03773C2.93866 9.0133 2.93151 8.95709 2.89101 8.91066C2.85289 8.87156 2.79808 8.85445 2.76711 8.88622ZM2.50978 8.68828C2.4931 8.72005 2.51693 8.75915 2.56458 8.78358C2.6027 8.80802 2.65036 8.80069 2.66704 8.76648C2.68371 8.73471 2.65989 8.69561 2.61223 8.67117C2.56458 8.65651 2.52646 8.66384 2.50978 8.68828ZM3.28177 9.55825C3.24365 9.59002 3.25794 9.66333 3.31274 9.70976C3.36754 9.76597 3.43664 9.7733 3.46762 9.7342C3.49859 9.70243 3.4843 9.62912 3.43664 9.58269C3.38422 9.52648 3.31274 9.51915 3.28177 9.55825ZM3.01014 9.19902C2.97202 9.22346 2.97202 9.28699 3.01014 9.3432C3.04827 9.39941 3.1126 9.42384 3.14357 9.39941C3.1817 9.36764 3.1817 9.3041 3.14357 9.24789C3.11021 9.19169 3.04827 9.16725 3.01014 9.19902Z" fill="#E6F1FF"/>
</svg>
