<svg width="275" height="275" viewBox="0 0 275 275" fill="none" xmlns="http://www.w3.org/2000/svg">
<path d="M255.357 58.8116H219.613L225.622 22.8271C227.406 12.1433 220.174 2.04754 209.478 0.264855C198.718 -1.49639 188.657 5.71153 186.87 16.3764L179.794 58.8116H121.417L127.426 22.8271C129.21 12.1433 121.978 2.04754 111.282 0.264855C100.522 -1.49639 90.4609 5.71153 88.6746 16.3764L81.5792 58.8116H39.2857C28.4392 58.8116 19.6429 67.5902 19.6429 78.4149C19.6429 89.8094 28.4392 98.0183 39.2857 98.0183H75.0296L61.9364 176.432H19.6429C8.79632 176.432 0 185.21 0 196.035C0 206.86 8.79632 215.087 19.6429 215.087H55.3867L49.3778 251.072C47.594 261.755 54.8257 271.851 65.5218 273.634C66.6016 274.939 67.7065 275 68.75 275C78.1786 275 86.5022 268.206 88.1043 258.625L95.1881 216.19H153.576L147.568 252.174C145.784 262.858 153.015 272.954 163.712 274.737C164.816 274.939 165.921 275 166.964 275C176.393 275 184.717 268.206 186.319 258.625L193.402 216.19H235.714C246.561 216.19 255.357 207.411 255.357 197.138C255.357 186.313 246.561 177.534 235.714 177.534H199.97L213.064 99.121H255.357C266.204 99.121 275 90.3485 275 80.069C275 68.1232 266.222 58.8116 255.357 58.8116ZM160.151 176.432H101.775L114.849 98.0183H173.238L160.151 176.432Z" fill="#64FFDA" fill-opacity="0.05"/>
</svg>
