<svg width="13" height="13" viewBox="0 0 13 13" fill="none" xmlns="http://www.w3.org/2000/svg">
<path d="M11.6975 0.457764H1.56505C1.10077 0.457764 0.723541 0.840269 0.723541 1.30983V11.4238C0.723541 11.8934 1.10077 12.2759 1.56505 12.2759H11.6975C12.1618 12.2759 12.5416 11.8934 12.5416 11.4238V1.30983C12.5416 0.840269 12.1618 0.457764 11.6975 0.457764ZM4.29535 10.5876H2.54374V4.94759H4.29799V10.5876H4.29535ZM3.41955 4.1773C2.85766 4.1773 2.40393 3.72093 2.40393 3.16168C2.40393 2.60243 2.85766 2.14606 3.41955 2.14606C3.9788 2.14606 4.43516 2.60243 4.43516 3.16168C4.43516 3.72357 3.98143 4.1773 3.41955 4.1773ZM10.8613 10.5876H9.10965V7.84408C9.10965 7.18986 9.09646 6.34835 8.19955 6.34835C7.28681 6.34835 7.147 7.0606 7.147 7.7966V10.5876H5.39539V4.94759H7.07577V5.71788H7.09951C7.33429 5.2747 7.90673 4.80778 8.7588 4.80778C10.5315 4.80778 10.8613 5.9764 10.8613 7.49587V10.5876Z" fill="#E6F1FF"/>
</svg>
