<svg width="11" height="11" viewBox="0 0 11 11" fill="none" xmlns="http://www.w3.org/2000/svg">
<path d="M10.4323 3.09948L7.74679 0.327602C7.51187 0.0854531 7.14171 0.282253 7.14171 0.659345V2.14677C4.60037 2.17947 2.58581 2.75049 2.58581 5.44816C2.58581 6.53726 3.21224 7.61633 3.90417 8.17993C4.12022 8.35605 4.42774 8.13504 4.34802 7.84979C3.63046 5.27968 4.86376 4.71407 7.14171 4.69602V6.18425C7.14171 6.56173 7.51258 6.75768 7.74714 6.5154L10.4326 3.74351C10.6013 3.58687 10.6013 3.27398 10.4323 3.09948ZM7.71119 7.9232C7.39673 7.9232 7.14171 8.21062 7.14171 8.56502V9.1888L1.44684 9.18877V2.7886H2.01632C2.33079 2.7886 2.58581 2.50138 2.58581 2.14677C2.58581 1.79217 2.33132 1.50495 2.01632 1.50495H1.44684C0.81773 1.50495 0.307861 2.07958 0.307861 2.7886V9.1888C0.307861 9.89761 0.81773 10.4724 1.44684 10.4724L7.14171 10.4724C7.77081 10.4724 8.28068 9.89759 8.28068 9.18877V8.56502C8.28068 8.21001 8.02619 7.9232 7.71119 7.9232Z" fill="#E6F1FF"/>
</svg>
