<svg width="26" height="23" viewBox="0 0 26 23" fill="none" xmlns="http://www.w3.org/2000/svg">
<path d="M23.3275 5.73201C23.344 5.98356 23.344 6.23517 23.344 6.48672C23.344 14.1593 17.9823 23 8.18277 23C5.16371 23 2.35915 22.0476 0 20.3946C0.428951 20.4484 0.841347 20.4664 1.2868 20.4664C3.77789 20.4664 6.07107 19.55 7.9023 17.9867C5.55965 17.9328 3.59644 16.2617 2.92003 13.9617C3.25001 14.0156 3.57994 14.0515 3.92642 14.0515C4.40483 14.0515 4.8833 13.9796 5.3287 13.8539C2.88708 13.3148 1.0558 10.9789 1.0558 8.1578V8.08595C1.76516 8.51721 2.59011 8.78673 3.46441 8.82263C2.02913 7.78042 1.08881 6.00154 1.08881 3.98902C1.08881 2.91092 1.35272 1.92264 1.81468 1.06013C4.43779 4.582 8.38072 6.88196 12.802 7.13357C12.7195 6.70232 12.67 6.25314 12.67 5.80391C12.67 2.60544 15.0457 0 17.9987 0C19.533 0 20.9188 0.700779 21.8921 1.83281C23.0964 1.58126 24.2512 1.09608 25.2741 0.431253C24.8781 1.77894 24.0368 2.91097 22.9315 3.62967C24.0038 3.50395 25.0432 3.18044 26 2.73127C25.2742 3.88122 24.3668 4.9054 23.3275 5.73201Z" fill="black"/>
</svg>
