<svg width="13" height="12" viewBox="0 0 13 12" fill="none" xmlns="http://www.w3.org/2000/svg">
<path d="M11.418 3.42673C11.4255 3.54107 11.4255 3.65544 11.4255 3.76978C11.4255 7.25731 8.98843 11.2758 4.53411 11.2758C3.16182 11.2758 1.88703 10.8429 0.814697 10.0915C1.00967 10.116 1.19713 10.1241 1.3996 10.1241C2.53191 10.1241 3.57426 9.70761 4.40663 8.99703C3.3418 8.97252 2.44943 8.21294 2.14198 7.16748C2.29197 7.19197 2.44193 7.20831 2.59942 7.20831C2.81688 7.20831 3.03436 7.17563 3.23682 7.11848C2.127 6.87344 1.2946 5.81166 1.2946 4.52936V4.4967C1.61704 4.69272 1.99201 4.81523 2.38942 4.83155C1.73702 4.35782 1.30961 3.54924 1.30961 2.63447C1.30961 2.14442 1.42956 1.69521 1.63954 1.30316C2.83186 2.904 4.62409 3.94943 6.63375 4.0638C6.59627 3.86778 6.57376 3.66361 6.57376 3.45941C6.57376 2.00557 7.6536 0.821289 8.99588 0.821289C9.69327 0.821289 10.3232 1.13982 10.7656 1.65438C11.313 1.54004 11.8379 1.3195 12.3029 1.01731C12.1229 1.62989 11.7404 2.14445 11.238 2.47113C11.7255 2.41398 12.1979 2.26694 12.6328 2.06277C12.3029 2.58547 11.8905 3.051 11.418 3.42673Z" fill="#E6F1FF"/>
</svg>
