<svg width="256" height="257" viewBox="0 0 256 257" fill="none" xmlns="http://www.w3.org/2000/svg">
<path d="M255.017 23.0398L186.596 242.545C184.992 247.692 181.537 251.817 177.207 253.748C174.767 254.834 172.193 255.149 169.758 254.719C167.872 254.387 166.091 253.618 164.461 252.406L114.148 215.025L83.9734 252.263C81.5808 255.565 78.3208 256.942 75.1697 256.387C69.9929 255.473 66.6939 249.703 67.7913 243.481L76.9693 191.444C77.6483 187.595 79.3759 184.042 81.8785 181.353L206.338 47.4467L48.9067 167.125L6.80039 135.822C2.18374 132.386 -0.237416 126.045 0.675043 118.898C1.5875 111.751 5.40044 106.499 10.7454 104.066L236.758 1.61611C242.153 -0.84037 248.037 0.510928 251.929 5.07627C255.821 9.64162 257.031 16.6224 255.017 23.0398Z" fill="#64FFDA" fill-opacity="0.05"/>
</svg>
