<svg class="animated" id="freepik_stories-devices" xmlns="http://www.w3.org/2000/svg" viewBox="0 0 750 500" version="1.1" xmlns:xlink="http://www.w3.org/1999/xlink" xmlns:svgjs="http://svgjs.com/svgjs"><style>svg#freepik_stories-devices:not(.animated) .animable {opacity: 0;}svg#freepik_stories-devices.animated #freepik--background-simple--inject-6 {animation: 1s 1 forwards cubic-bezier(.36,-0.01,.5,1.38) zoomIn;animation-delay: 0s;}svg#freepik_stories-devices.animated #freepik--Plant--inject-6 {animation: 1s 1 forwards cubic-bezier(.36,-0.01,.5,1.38) slideRight;animation-delay: 0s;}svg#freepik_stories-devices.animated #freepik--Mobile--inject-6 {animation: 1s 1 forwards cubic-bezier(.36,-0.01,.5,1.38) slideDown;animation-delay: 0s;}svg#freepik_stories-devices.animated #freepik--Tablet--inject-6 {animation: 1s 1 forwards cubic-bezier(.36,-0.01,.5,1.38) slideLeft;animation-delay: 0s;}svg#freepik_stories-devices.animated #freepik--Computer--inject-6 {animation: 1s 1 forwards cubic-bezier(.36,-0.01,.5,1.38) zoomIn;animation-delay: 0s;}svg#freepik_stories-devices.animated #freepik--Character--inject-6 {animation: 1s 1 forwards cubic-bezier(.36,-0.01,.5,1.38) slideLeft;animation-delay: 0s;}            @keyframes zoomIn {                0% {                    opacity: 0;                    transform: scale(0.5);                }                100% {                    opacity: 1;                    transform: scale(1);                }            }                    @keyframes slideRight {                0% {                    opacity: 0;                    transform: translateX(30px);                }                100% {                    opacity: 1;                    transform: translateX(0);                }            }                    @keyframes slideDown {                0% {                    opacity: 0;                    transform: translateY(-30px);                }                100% {                    opacity: 1;                    transform: translateY(0);                }            }                    @keyframes slideLeft {                0% {                    opacity: 0;                    transform: translateX(-30px);                }                100% {                    opacity: 1;                    transform: translateX(0);                }            }        .animator-hidden { display: none; }</style><g id="freepik--background-simple--inject-6" style="transform-origin: 390.54px 248.141px 0px;" class="animable"><path d="M177.08,111C278.45,22.65,387.2,178.65,503,176c74.61-1.7,153.18,41.59,134.89,131.87-26.6,131.3-237.64,115.33-349,78.23S87.31,189.26,177.08,111Z" style="fill: rgb(240, 240, 240); transform-origin: 390.54px 248.141px 0px;" id="ellxnroiacq9a" class="animable"></path></g><g id="freepik--Plant--inject-6" style="transform-origin: 135.166px 377.99px 0px;" class="animable"><path d="M152.11,406c12.48-8.17,15.65-23.82,15.52-38,0-2.36.3-4.84-.79-6.94s-3.7-3.57-5.87-2.63c-1.79.78-2.61,2.8-3.65,4.46a13.9,13.9,0,0,1-5.73,5.15c-1.54.74-3.43,1.17-4.91.32-2-1.17-2.21-4-2.14-6.33q.21-6.56.4-13.11a21.49,21.49,0,0,0-.54-7,7.34,7.34,0,0,0-4.51-5c-2.25-.68-5.07.54-5.61,2.82a21.8,21.8,0,0,0-.14,2.92,2.47,2.47,0,0,1-1.52,2.29,2.9,2.9,0,0,1-2.58-1.14,31.28,31.28,0,0,1-5.46-8.59,43,43,0,0,0-5.08-8.84c-2.16-2.64-5.19-4.76-8.59-5s-7.07,1.72-8,5,.93,6.69,3,9.41a52.67,52.67,0,0,0,10.79,10.66,4.34,4.34,0,0,1,1.8,2c.47,1.58-1.07,3.09-2.64,3.57-1.79.54-3.71.31-5.56.48s-3.89.93-4.63,2.64c-1,2.38.94,4.94,2.89,6.63a45.75,45.75,0,0,0,13.26,8,15.39,15.39,0,0,1,4.94,2.52c1.38,1.24,2.18,3.37,1.29,5s-3.09,2.11-4.92,1.73A32.23,32.23,0,0,1,118,377c-3.24-1.29-7.46-1.17-9.62,1.57a7.34,7.34,0,0,0-1,6.54,17.11,17.11,0,0,0,3.46,5.88,45.62,45.62,0,0,0,19.17,14c7.51,2.78,14.52,3.65,22.11,1.11" style="fill: rgb(20, 158, 203); transform-origin: 135.166px 364.484px 0px;" id="el3x140ql2t6c" class="animable"></path><path d="M106.41,323.29l.23.23.69.63c.61.56,1.5,1.38,2.63,2.47a88.89,88.89,0,0,1,8.84,9.89c1.71,2.21,3.49,4.72,5.35,7.44s3.81,5.66,5.76,8.81a104.59,104.59,0,0,1,5.61,10.16c.88,1.81,1.65,3.71,2.43,5.64s1.58,3.89,2.38,5.88a212.11,212.11,0,0,1,7.91,22.76,103.69,103.69,0,0,1,3.49,19.34,74.83,74.83,0,0,1-.1,13.25c-.16,1.55-.31,2.76-.44,3.58-.06.39-.1.7-.14.93a2.54,2.54,0,0,0,0,.32,2.35,2.35,0,0,0,.08-.31c0-.23.1-.54.17-.93.16-.81.34-2,.53-3.57a71.9,71.9,0,0,0,.24-13.29,101.28,101.28,0,0,0-3.41-19.42,209.06,209.06,0,0,0-7.89-22.83q-1.22-3-2.38-5.87c-.79-1.93-1.57-3.84-2.45-5.67a105.3,105.3,0,0,0-5.66-10.19c-2-3.15-3.94-6.07-5.8-8.79s-3.67-5.22-5.41-7.43a84.32,84.32,0,0,0-9-9.82c-1.15-1.07-2.07-1.88-2.7-2.41l-.71-.61C106.5,323.35,106.42,323.28,106.41,323.29Z" style="fill: rgb(38, 50, 56); transform-origin: 129.34px 378.955px 0px;" id="elfv68rvw4q2c" class="animable"></path><path d="M135.79,362.71a4.82,4.82,0,0,0,.25-1c.14-.65.32-1.58.51-2.75.39-2.33.83-5.56,1.29-9.12s.94-6.78,1.37-9.1c.21-1.15.39-2.09.52-2.74a4.56,4.56,0,0,0,.16-1,4.21,4.21,0,0,0-.33,1c-.18.63-.41,1.56-.66,2.71-.5,2.31-1,5.53-1.49,9.1s-.86,6.7-1.16,9.14c-.15,1.09-.28,2-.37,2.76A4.34,4.34,0,0,0,135.79,362.71Z" style="fill: rgb(38, 50, 56); transform-origin: 137.839px 349.855px 0px;" id="elz572psgzdj" class="animable"></path><path d="M105.38,356.35a6.52,6.52,0,0,0,1.21.17c.78.09,1.92.21,3.31.41,2.79.36,6.63,1,10.83,1.88s8,1.87,10.67,2.64c1.36.38,2.45.72,3.2.95a6,6,0,0,0,1.19.31,8.72,8.72,0,0,0-1.13-.47c-.74-.28-1.82-.66-3.17-1.08-2.69-.86-6.46-1.88-10.67-2.77a109.19,109.19,0,0,0-10.88-1.77c-1.41-.16-2.55-.23-3.33-.26A6.11,6.11,0,0,0,105.38,356.35Z" style="fill: rgb(38, 50, 56); transform-origin: 120.585px 359.517px 0px;" id="el5o029pretvg" class="animable"></path><path d="M148.27,396.53a1.62,1.62,0,0,0,.22-.36l.55-1.08c.47-.94,1.12-2.31,1.9-4,1.56-3.42,3.56-8.21,5.69-13.52s4.1-10.12,5.58-13.56l1.77-4.08.48-1.11c.1-.26.15-.4.13-.4a2,2,0,0,0-.21.36l-.55,1.08c-.48.94-1.12,2.31-1.9,4-1.56,3.42-3.56,8.21-5.7,13.52s-4.09,10.12-5.58,13.56c-.72,1.68-1.32,3.06-1.77,4.08l-.47,1.11A1.64,1.64,0,0,0,148.27,396.53Z" style="fill: rgb(38, 50, 56); transform-origin: 156.432px 377.475px 0px;" id="els4jw3uu313" class="animable"></path><path d="M108,382.65s.13.08.39.18l1.17.41,4.32,1.5c3.64,1.26,8.65,3.06,14.18,5.06s10.56,3.75,14.23,4.94c1.84.6,3.32,1.06,4.36,1.36l1.19.34c.28.08.43.11.43.09a2.11,2.11,0,0,0-.4-.17l-1.17-.42-4.31-1.49c-3.64-1.26-8.65-3.06-14.18-5.06s-10.57-3.76-14.23-4.95c-1.84-.59-3.33-1.06-4.36-1.36l-1.2-.34A2.16,2.16,0,0,0,108,382.65Z" style="fill: rgb(38, 50, 56); transform-origin: 128.135px 389.593px 0px;" id="elrbg1jnbk2od" class="animable"></path></g><g id="freepik--Mobile--inject-6" style="transform-origin: 528.14px 211.8px 0px;" class="animable"><path d="M557.92,300.48l-60.33-.28A13.11,13.11,0,0,1,484.51,287l.64-150.83a13.12,13.12,0,0,1,13.2-13.05l60.33.27a13.14,13.14,0,0,1,13.09,13.16l-.64,150.84A13.13,13.13,0,0,1,557.92,300.48Z" style="fill: rgb(69, 90, 100); transform-origin: 528.14px 211.8px 0px;" id="elu3rgez93qwo" class="animable"></path><path d="M558.6,128.64l-11.7,0a2.89,2.89,0,0,0-2.85,2.94v2.12a2.92,2.92,0,0,1-2.85,2.95l-22.81-.11a2.89,2.89,0,0,1-2.82-3V131.4a2.9,2.9,0,0,0-2.82-3l-4.12,0-10.24,0a9.19,9.19,0,0,0-9.24,9.14l-.63,147.23a9.2,9.2,0,0,0,9.17,9.22l60.21.28a9.21,9.21,0,0,0,9.25-9.14l.62-147.23A9.19,9.19,0,0,0,558.6,128.64Z" style="fill: rgb(255, 255, 255); transform-origin: 528.145px 211.335px 0px;" id="el0zzhyrjpe8kd" class="animable"></path><rect x="498.03" y="228.82" width="59.58" height="3.99" style="fill: rgb(69, 90, 100); transform-origin: 527.82px 230.815px 0px;" id="elg9ei1odml2k" class="animable"></rect><path d="M555.49,244.51c0,.14-12.72.26-28.4.26s-28.41-.12-28.41-.26,12.72-.26,28.41-.26S555.49,244.37,555.49,244.51Z" style="fill: rgb(69, 90, 100); transform-origin: 527.085px 244.51px 0px;" id="elhw2edoirz7s" class="animable"></path><path d="M555.49,150c0,.15-12.72.26-28.4.26s-28.41-.11-28.41-.26,12.72-.26,28.41-.26S555.49,149.83,555.49,150Z" style="fill: rgb(69, 90, 100); transform-origin: 527.085px 150px 0px;" id="ela06oqxciq2j" class="animable"></path><path d="M555.49,251.77c0,.14-12.72.26-28.4.26s-28.41-.12-28.41-.26,12.72-.26,28.41-.26S555.49,251.62,555.49,251.77Z" style="fill: rgb(69, 90, 100); transform-origin: 527.085px 251.77px 0px;" id="elmnyid7z3ppn" class="animable"></path><path d="M555.49,259c0,.14-12.72.26-28.4.26s-28.41-.12-28.41-.26,12.72-.26,28.41-.26S555.49,258.88,555.49,259Z" style="fill: rgb(69, 90, 100); transform-origin: 527.085px 259px 0px;" id="el2zkip7wl2gt" class="animable"></path><path d="M555.49,266.28c0,.14-12.72.26-28.4.26s-28.41-.12-28.41-.26,12.72-.26,28.41-.26S555.49,266.13,555.49,266.28Z" style="fill: rgb(69, 90, 100); transform-origin: 527.085px 266.28px 0px;" id="el987yompsw3" class="animable"></path><path d="M555.49,273.53c0,.15-12.72.26-28.4.26s-28.41-.11-28.41-.26,12.72-.26,28.41-.26S555.49,273.39,555.49,273.53Z" style="fill: rgb(69, 90, 100); transform-origin: 527.085px 273.53px 0px;" id="elcs9pia5kuo" class="animable"></path><path d="M556.3,281.76c0,.14-12.72.26-28.4.26s-28.41-.12-28.41-.26,12.72-.26,28.41-.26S556.3,281.61,556.3,281.76Z" style="fill: rgb(69, 90, 100); transform-origin: 527.895px 281.76px 0px;" id="elt1re1pibkv" class="animable"></path><rect x="498.68" y="158.25" width="59.73" height="57.79" style="fill: rgb(224, 224, 224); transform-origin: 528.545px 187.145px 0px;" id="elzmb6vbmteoi" class="animable"></rect><polygon points="503.31 211.09 519.84 181.35 533.35 200.36 541.56 190.26 553.78 211.09 503.31 211.09" style="fill: rgb(20, 158, 203); transform-origin: 528.545px 196.22px 0px;" id="el0sdneo8pryy" class="animable"></polygon><path d="M539.11,175.57a4.3,4.3,0,1,1-4.3-4.3A4.31,4.31,0,0,1,539.11,175.57Z" style="fill: rgb(20, 158, 203); transform-origin: 534.81px 175.57px 0px;" id="eloktmvvhtqca" class="animable"></path><path d="M553.78,211.25s0-.08,0-.24,0-.39,0-.67c0-.62,0-1.48,0-2.6,0-2.29,0-5.61-.07-9.82,0-8.44-.07-20.46-.12-34.89l.24.24-50.46,0c-.07.06.53-.54.28-.28h0v13c0,4.25,0,8.41,0,12.45,0,8.1,0,15.75,0,22.79l-.25-.25,36.49.13,10.3.06,2.73,0h.7l.25,0h-.22l-.68,0-2.68,0-10.24.06-36.65.13h-.25v-.25c0-7,0-14.69,0-22.79,0-4,0-8.2,0-12.45v-13h0c-.26.25.34-.36.29-.29l50.46,0H554V163c-.06,14.5-.1,26.57-.13,35.05,0,4.18,0,7.48-.06,9.76q0,1.65,0,2.55c0,.27,0,.48,0,.65A.85.85,0,0,1,553.78,211.25Z" style="fill: rgb(69, 90, 100); transform-origin: 528.542px 186.967px 0px;" id="elacxykpxzlg8" class="animable"></path></g><g id="freepik--Tablet--inject-6" style="transform-origin: 356.61px 138.59px 0px;" class="animable animator-hidden"><g id="elxgx15bns3n7"><rect x="278.45" y="26.42" width="156.32" height="224.34" rx="11.55" style="fill: rgb(69, 90, 100); transform-origin: 356.61px 138.59px 0px; transform: rotate(-90deg);" class="animable"></rect></g><g id="ell2vhjbv3x9b"><rect x="280.23" y="44.91" width="146.46" height="187.35" style="fill: rgb(255, 255, 255); transform-origin: 353.46px 138.585px 0px; transform: rotate(-90deg);" class="animable"></rect></g><path d="M457.5,132.59a6,6,0,1,1-6,6A6,6,0,0,1,457.5,132.59Z" style="fill: rgb(38, 50, 56); transform-origin: 457.5px 138.59px 0px;" id="elzd8ql4y1tg8" class="animable"></path><g id="elzfsqnmd27kl"><rect x="228.6" y="137.35" width="47.08" height="2.48" rx="1.22" style="fill: rgb(38, 50, 56); transform-origin: 252.14px 138.59px 0px; transform: rotate(-90deg);" class="animable"></rect></g><rect x="345.24" y="76.36" width="59.58" height="3.99" style="fill: rgb(69, 90, 100); transform-origin: 375.03px 78.355px 0px;" id="elrff7a1abfzp" class="animable"></rect><rect x="267.63" y="144.89" width="59.58" height="3.99" style="fill: rgb(69, 90, 100); transform-origin: 297.42px 146.885px 0px;" id="elw17a4ar7ih" class="animable"></rect><path d="M419.33,91.2c0,.15-16.58.26-37,.26s-37.05-.11-37.05-.26,16.58-.26,37.05-.26S419.33,91.06,419.33,91.2Z" style="fill: rgb(69, 90, 100); transform-origin: 382.305px 91.2px 0px;" id="elq8uz7spbi6m" class="animable"></path><path d="M419.33,99.91c0,.14-16.58.26-37,.26s-37.05-.12-37.05-.26,16.58-.26,37.05-.26S419.33,99.76,419.33,99.91Z" style="fill: rgb(69, 90, 100); transform-origin: 382.305px 99.91px 0px;" id="el2ycbp4p8ahr" class="animable"></path><path d="M419.33,108.61c0,.14-16.58.26-37,.26s-37.05-.12-37.05-.26,16.58-.26,37.05-.26S419.33,108.47,419.33,108.61Z" style="fill: rgb(69, 90, 100); transform-origin: 382.305px 108.61px 0px;" id="elx7s3noij3f" class="animable"></path><path d="M419.33,117.31c0,.15-16.58.26-37,.26s-37.05-.11-37.05-.26,16.58-.26,37.05-.26S419.33,117.17,419.33,117.31Z" style="fill: rgb(69, 90, 100); transform-origin: 382.305px 117.31px 0px;" id="elk5o54ohdy5" class="animable"></path><path d="M419.33,126c0,.14-16.58.26-37,.26s-37.05-.12-37.05-.26,16.58-.26,37.05-.26S419.33,125.87,419.33,126Z" style="fill: rgb(69, 90, 100); transform-origin: 382.305px 126px 0px;" id="elu7i2owhkpyf" class="animable"></path><path d="M403.08,134.72c0,.14-12.95.26-28.92.26s-28.92-.12-28.92-.26,12.94-.26,28.92-.26S403.08,134.58,403.08,134.72Z" style="fill: rgb(69, 90, 100); transform-origin: 374.16px 134.72px 0px;" id="el9hy1v4rv70e" class="animable"></path><path d="M365.48,160.58c0,.14-21.76.26-48.6.26s-48.6-.12-48.6-.26,21.76-.26,48.6-.26S365.48,160.43,365.48,160.58Z" style="fill: rgb(69, 90, 100); transform-origin: 316.88px 160.58px 0px;" id="elq5nuf9jwppq" class="animable"></path><path d="M365.48,167.83c0,.15-21.76.26-48.6.26s-48.6-.11-48.6-.26,21.76-.26,48.6-.26S365.48,167.69,365.48,167.83Z" style="fill: rgb(69, 90, 100); transform-origin: 316.88px 167.83px 0px;" id="elrkbnwvfsb8q" class="animable"></path><path d="M365.48,175.09c0,.14-21.76.26-48.6.26s-48.6-.12-48.6-.26,21.76-.26,48.6-.26S365.48,174.94,365.48,175.09Z" style="fill: rgb(69, 90, 100); transform-origin: 316.88px 175.09px 0px;" id="el4e16k0t64hm" class="animable"></path><path d="M365.48,182.34c0,.15-21.76.26-48.6.26s-48.6-.11-48.6-.26,21.76-.26,48.6-.26S365.48,182.2,365.48,182.34Z" style="fill: rgb(69, 90, 100); transform-origin: 316.88px 182.34px 0px;" id="elccncfds409h" class="animable"></path><path d="M365.48,189.6c0,.14-21.76.26-48.6.26s-48.6-.12-48.6-.26,21.76-.26,48.6-.26S365.48,189.46,365.48,189.6Z" style="fill: rgb(69, 90, 100); transform-origin: 316.88px 189.6px 0px;" id="elygib2rgphai" class="animable"></path><rect x="268.28" y="74.31" width="59.73" height="57.79" style="fill: rgb(20, 158, 203); transform-origin: 298.145px 103.205px 0px;" id="el7oqy42enniq" class="animable"></rect><polygon points="272.91 127.16 289.44 97.42 302.95 116.42 311.16 106.33 323.38 127.16 272.91 127.16" style="fill: rgb(224, 224, 224); transform-origin: 298.145px 112.29px 0px;" id="elaz815n5jai" class="animable"></polygon><path d="M308.71,91.63a4.3,4.3,0,1,1-4.3-4.29A4.3,4.3,0,0,1,308.71,91.63Z" style="fill: rgb(224, 224, 224); transform-origin: 304.41px 91.6401px 0px;" id="elxtugyxt025a" class="animable"></path><path d="M323.38,127.32s0-.09,0-.24,0-.39,0-.67c0-.62,0-1.49,0-2.6,0-2.3,0-5.61-.06-9.82,0-8.44-.07-20.46-.12-34.89l.24.24-50.46,0c-.07.06.53-.53.28-.27h0v6.53c0,2.16,0,4.31,0,6.43v12.45c0,8.1,0,15.75,0,22.79l-.25-.25,36.49.12,10.29.07,2.73,0h.71l.25,0h-.22l-.68,0-2.68,0-10.24.07-36.65.12h-.25v-.25c0-7,0-14.69,0-22.79q0-6.07,0-12.45v-13h0c-.26.25.34-.36.29-.3l50.46,0h.25v.25c-.05,14.49-.09,26.57-.12,35.05,0,4.18-.05,7.48-.06,9.76,0,1.09,0,2,0,2.55,0,.27,0,.48,0,.65A.67.67,0,0,1,323.38,127.32Z" style="fill: rgb(69, 90, 100); transform-origin: 298.227px 103.003px 0px;" id="eleebgqozoi0h" class="animable"></path><rect x="378.89" y="152.55" width="42.27" height="40.9" style="fill: rgb(20, 158, 203); transform-origin: 400.025px 173px 0px;" id="eldrm132okcm7" class="animable"></rect><polygon points="382.17 189.95 393.86 168.91 403.43 182.36 409.24 175.21 417.88 189.95 382.17 189.95" style="fill: rgb(224, 224, 224); transform-origin: 400.025px 179.43px 0px;" id="elhffovicexkv" class="animable"></polygon><path d="M407.5,164.81a3,3,0,1,1-3-3A3,3,0,0,1,407.5,164.81Z" style="fill: rgb(224, 224, 224); transform-origin: 404.5px 164.81px 0px;" id="elz1a0fj5lop" class="animable"></path><path d="M417.88,190.06s0-.06,0-.16,0-.28,0-.48c0-.44,0-1,0-1.84,0-1.62,0-4,0-7,0-6-.05-14.48-.09-24.69l.17.17-35.71,0c-.05,0,.38-.38.2-.19h0v9.18q0,4.5,0,8.81c0,5.73,0,11.14,0,16.12l-.17-.17L408,190l7.28,0,1.94,0h.67s-.05,0-.15,0h-.48l-1.9,0-7.25.05-25.93.09H382v-.18c0-5,0-10.39,0-16.12V156h0c-.18.17.25-.26.21-.21l35.71,0h.18v.17c0,10.26-.07,18.8-.09,24.8,0,3,0,5.3-.05,6.91,0,.78,0,1.38,0,1.81,0,.19,0,.34,0,.46S417.89,190.07,417.88,190.06Z" style="fill: rgb(69, 90, 100); transform-origin: 400.028px 172.963px 0px;" id="el4pe8blkkj2" class="animable"></path></g><g id="freepik--Computer--inject-6" style="transform-origin: 309.335px 337.645px 0px;" class="animable"><rect x="152.57" y="232.55" width="313.59" height="207.37" rx="14.57" style="fill: rgb(38, 50, 56); transform-origin: 309.365px 336.235px 0px;" id="el8hki669eck" class="animable"></rect><path d="M139.46,424.59H479.21a0,0,0,0,1,0,0v.35a17.8,17.8,0,0,1-17.8,17.8H157.26a17.8,17.8,0,0,1-17.8-17.8v-.35A0,0,0,0,1,139.46,424.59Z" style="fill: rgb(38, 50, 56); transform-origin: 309.335px 433.665px 0px;" id="el20x7isb54lc" class="animable"></path><rect x="160.99" y="240.79" width="295.88" height="175.12" style="fill: rgb(224, 224, 224); transform-origin: 308.93px 328.35px 0px;" id="el4z6bwgosmcv" class="animable"></rect><polygon points="278.45 424.59 282.67 431.3 341.99 431.3 345.91 424.59 278.45 424.59" style="fill: rgb(69, 90, 100); transform-origin: 312.18px 427.945px 0px;" id="el6qqpuz2qk1s" class="animable"></polygon><rect x="170.86" y="252.46" width="272.41" height="163.39" style="fill: rgb(250, 250, 250); transform-origin: 307.065px 334.155px 0px;" id="el7id9c81uzsd" class="animable"></rect><path d="M182.49,260.51a2.29,2.29,0,1,1-2.29-2.28A2.29,2.29,0,0,1,182.49,260.51Z" style="fill: rgb(69, 90, 100); transform-origin: 180.2px 260.52px 0px;" id="elc9brrrzygx" class="animable"></path><path d="M191.81,260.51a2.29,2.29,0,1,1-2.28-2.28A2.28,2.28,0,0,1,191.81,260.51Z" style="fill: rgb(69, 90, 100); transform-origin: 189.52px 260.52px 0px;" id="eln2zm3imqrhe" class="animable"></path><path d="M201.14,260.51a2.29,2.29,0,1,1-2.29-2.28A2.28,2.28,0,0,1,201.14,260.51Z" style="fill: rgb(69, 90, 100); transform-origin: 198.85px 260.52px 0px;" id="elwk25nselg9" class="animable"></path><path d="M443.27,270.51c0,.15-61,.26-136.2.26s-136.21-.11-136.21-.26,61-.26,136.21-.26S443.27,270.37,443.27,270.51Z" style="fill: rgb(69, 90, 100); transform-origin: 307.065px 270.51px 0px;" id="el41057knjkdh" class="animable"></path><rect x="152.57" y="424.73" width="313.59" height="1" style="fill: rgb(69, 90, 100); transform-origin: 309.365px 425.23px 0px;" id="elpy4m7gx7u4p" class="animable"></rect><rect x="193.19" y="349.9" width="59.58" height="3.99" style="fill: rgb(69, 90, 100); transform-origin: 222.98px 351.895px 0px;" id="elrta0bci7dsd" class="animable"></rect><rect x="270.15" y="294.56" width="59.58" height="3.99" style="fill: rgb(69, 90, 100); transform-origin: 299.94px 296.555px 0px;" id="eleox7hjwha0b" class="animable"></rect><path d="M418.35,309.41c0,.14-33.18.26-74.1.26s-74.1-.12-74.1-.26,33.17-.27,74.1-.27S418.35,309.26,418.35,309.41Z" style="fill: rgb(69, 90, 100); transform-origin: 344.25px 309.405px 0px;" id="elz7gc4hrj0r9" class="animable"></path><path d="M418.35,318.11c0,.14-33.18.26-74.1.26s-74.1-.12-74.1-.26,33.17-.26,74.1-.26S418.35,318,418.35,318.11Z" style="fill: rgb(69, 90, 100); transform-origin: 344.25px 318.11px 0px;" id="elsze8dzzbq" class="animable"></path><path d="M418.35,326.81c0,.15-33.18.26-74.1.26s-74.1-.11-74.1-.26,33.17-.26,74.1-.26S418.35,326.67,418.35,326.81Z" style="fill: rgb(69, 90, 100); transform-origin: 344.25px 326.81px 0px;" id="el2tan4vd0yy3" class="animable"></path><path d="M418.35,335.52c0,.14-33.18.26-74.1.26s-74.1-.12-74.1-.26,33.17-.27,74.1-.27S418.35,335.37,418.35,335.52Z" style="fill: rgb(69, 90, 100); transform-origin: 344.25px 335.515px 0px;" id="el5poofnoiuvf" class="animable"></path><path d="M418.35,344.22c0,.14-33.18.26-74.1.26s-74.1-.12-74.1-.26,33.17-.26,74.1-.26S418.35,344.07,418.35,344.22Z" style="fill: rgb(69, 90, 100); transform-origin: 344.25px 344.22px 0px;" id="elfnu45g5a25c" class="animable"></path><path d="M328,352.92c0,.14-12.95.26-28.92.26s-28.93-.12-28.93-.26,13-.26,28.93-.26S328,352.78,328,352.92Z" style="fill: rgb(69, 90, 100); transform-origin: 299.075px 352.92px 0px;" id="eli4qqeero5x" class="animable"></path><path d="M417.26,369.81c0,.15-21.81.26-48.7.26s-48.7-.11-48.7-.26,21.8-.26,48.7-.26S417.26,369.67,417.26,369.81Z" style="fill: rgb(69, 90, 100); transform-origin: 368.56px 369.81px 0px;" id="el6r0nuduc5ow" class="animable"></path><path d="M417.26,379.05c0,.14-21.81.26-48.7.26s-48.7-.12-48.7-.26,21.8-.26,48.7-.26S417.26,378.91,417.26,379.05Z" style="fill: rgb(69, 90, 100); transform-origin: 368.56px 379.05px 0px;" id="elynwi7zkjogc" class="animable"></path><path d="M417.26,388.29c0,.14-21.81.26-48.7.26s-48.7-.12-48.7-.26,21.8-.26,48.7-.26S417.26,388.14,417.26,388.29Z" style="fill: rgb(69, 90, 100); transform-origin: 368.56px 388.29px 0px;" id="elr23djqkj5lm" class="animable"></path><path d="M417.26,397.53c0,.14-21.81.26-48.7.26s-48.7-.12-48.7-.26,21.8-.26,48.7-.26S417.26,397.38,417.26,397.53Z" style="fill: rgb(69, 90, 100); transform-origin: 368.56px 397.53px 0px;" id="el5doj4bogfhb" class="animable"></path><path d="M252.92,368.93c0,.14-13,.26-29,.26s-29-.12-29-.26,13-.26,29-.26S252.92,368.78,252.92,368.93Z" style="fill: rgb(69, 90, 100); transform-origin: 223.92px 368.93px 0px;" id="elpj6oos6h1x" class="animable"></path><path d="M252.92,376.18c0,.15-13,.26-29,.26s-29-.11-29-.26,13-.26,29-.26S252.92,376,252.92,376.18Z" style="fill: rgb(69, 90, 100); transform-origin: 223.92px 376.18px 0px;" id="ellun6h4sa5q" class="animable"></path><path d="M252.92,383.44c0,.14-13,.26-29,.26s-29-.12-29-.26,13-.26,29-.26S252.92,383.3,252.92,383.44Z" style="fill: rgb(69, 90, 100); transform-origin: 223.92px 383.44px 0px;" id="el7j7v1fdz3gv" class="animable"></path><path d="M252.92,390.69c0,.15-13,.26-29,.26s-29-.11-29-.26,13-.26,29-.26S252.92,390.55,252.92,390.69Z" style="fill: rgb(69, 90, 100); transform-origin: 223.92px 390.69px 0px;" id="elj2osl7ilhf" class="animable"></path><path d="M252.92,398c0,.14-13,.26-29,.26s-29-.12-29-.26,13-.26,29-.26S252.92,397.81,252.92,398Z" style="fill: rgb(69, 90, 100); transform-origin: 223.92px 398px 0px;" id="el8pwgr89igc8" class="animable"></path><rect x="193.19" y="281.54" width="59.73" height="57.79" style="fill: rgb(224, 224, 224); transform-origin: 223.055px 310.435px 0px;" id="elkktj1t5z1ak" class="animable"></rect><polygon points="197.82 334.38 214.35 304.64 227.86 323.65 236.08 313.56 248.29 334.38 197.82 334.38" style="fill: rgb(20, 158, 203); transform-origin: 223.055px 319.51px 0px;" id="elmrrhgwru8d" class="animable"></polygon><path d="M233.62,298.86a4.3,4.3,0,1,1-4.3-4.3A4.3,4.3,0,0,1,233.62,298.86Z" style="fill: rgb(20, 158, 203); transform-origin: 229.32px 298.86px 0px;" id="elynp62mjscp" class="animable"></path><path d="M248.29,334.54a2.07,2.07,0,0,1,0-.23c0-.18,0-.4,0-.68,0-.61,0-1.48,0-2.6,0-2.29,0-5.6-.07-9.81,0-8.44-.07-20.46-.12-34.9l.24.25-50.46,0c-.07.06.53-.54.28-.28v13c0,4.24,0,8.4,0,12.45,0,8.09,0,15.74,0,22.78l-.25-.24,36.49.12,10.3.07,2.73,0h.95s-.07,0-.22,0h-.68l-2.68,0-10.24.07-36.65.12h-.24v-.25c0-7,0-14.69,0-22.78,0-4.05,0-8.21,0-12.45v-13l.29-.29,50.46,0h.25v.24c0,14.5-.1,26.57-.13,35.05,0,4.19,0,7.48-.06,9.76,0,1.1,0,1.95,0,2.56,0,.27,0,.48,0,.64S248.3,334.55,248.29,334.54Z" style="fill: rgb(69, 90, 100); transform-origin: 223.17px 310.275px 0px;" id="elb9cfj60thh" class="animable"></path><rect x="270.11" y="365.4" width="42.27" height="40.9" style="fill: rgb(224, 224, 224); transform-origin: 291.245px 385.85px 0px;" id="elq6e21z40l3k" class="animable"></rect><polygon points="273.39 402.8 285.08 381.76 294.65 395.21 300.46 388.06 309.11 402.8 273.39 402.8" style="fill: rgb(20, 158, 203); transform-origin: 291.25px 392.28px 0px;" id="elt4cgryfhgnm" class="animable"></polygon><path d="M298.72,377.66a3,3,0,1,1-3-3A3,3,0,0,1,298.72,377.66Z" style="fill: rgb(20, 158, 203); transform-origin: 295.72px 377.66px 0px;" id="elrxghnptvvis" class="animable"></path><path d="M309.11,402.92a1.33,1.33,0,0,1,0-.17c0-.12,0-.28,0-.48,0-.43,0-1,0-1.84,0-1.62,0-4-.05-6.95,0-6,0-14.48-.08-24.69l.17.17-35.72,0s.38-.38.2-.19h0v18c0,5.73,0,11.14,0,16.13l-.18-.18,25.83.09,7.28.05,1.93,0h0l-1.9,0-7.24,0-25.94.09h-.17v-.17c0-5,0-10.4,0-16.13,0-2.86,0-5.81,0-8.81v-9.16h0c-.18.17.24-.26.2-.21l35.72,0h.17v.17c0,10.26-.07,18.8-.09,24.81,0,3,0,5.29,0,6.9,0,.78,0,1.38,0,1.81,0,.19,0,.34,0,.46A.85.85,0,0,1,309.11,402.92Z" style="fill: rgb(69, 90, 100); transform-origin: 291.263px 385.708px 0px;" id="el0grt7wptc54k" class="animable"></path></g><g id="freepik--Character--inject-6" style="transform-origin: 567.748px 360.004px 0px;" class="animable animator-hidden"><path d="M665.35,425l-10-1.19L653,442.55l14.63,1.89.22-1.15c.94-5.14,4.39-26.18,3.77-29.77C670.93,409.52,665.35,425,665.35,425Z" style="fill: rgb(20, 158, 203); transform-origin: 662.347px 428.65px 0px;" id="elfue16dkisl8" class="animable"></path><path d="M670.75,412.18c.18,0-.51,7.06-1.54,15.71s-2,15.65-2.18,15.63.52-7,1.54-15.71S670.57,412.16,670.75,412.18Z" style="fill: rgb(38, 50, 56); transform-origin: 668.89px 427.85px 0px;" id="el148k2cuf2dkr" class="animable"></path><path d="M667.43,424.12c-.1.14-.62-.06-1.1-.52s-.68-1-.54-1.09.56.2,1,.63S667.54,424,667.43,424.12Z" style="fill: rgb(38, 50, 56); transform-origin: 666.599px 423.329px 0px;" id="elhiju7u5rfvv" class="animable"></path><path d="M668.23,423c-.08.16-.67,0-1.25-.44s-.9-1-.77-1.1.62.17,1.16.58S668.32,422.84,668.23,423Z" style="fill: rgb(38, 50, 56); transform-origin: 667.212px 422.25px 0px;" id="el76z817v1vpo" class="animable"></path><path d="M667.64,437.86c0,.08-.25.33-.75.69a12.1,12.1,0,0,0-1.77,1.47,4.55,4.55,0,0,0-1.08,1.92c-.14.56-.1.93-.2.95s-.28-.35-.25-1a3.86,3.86,0,0,1,1-2.29,6.65,6.65,0,0,1,2-1.43C667.22,437.89,667.59,437.78,667.64,437.86Z" style="fill: rgb(38, 50, 56); transform-origin: 665.613px 440.363px 0px;" id="el2xperfmk6nw" class="animable"></path><path d="M665.56,423.84c.16-.07.48.3.6.85s0,1-.18,1-.34-.4-.45-.89S665.39,423.91,665.56,423.84Z" style="fill: rgb(38, 50, 56); transform-origin: 665.824px 424.761px 0px;" id="elav0aujlwchk" class="animable"></path><path d="M664.56,424c.17,0,.26.52.2,1.16s-.27,1.12-.44,1.08-.27-.55-.2-1.15S664.38,424,664.56,424Z" style="fill: rgb(38, 50, 56); transform-origin: 664.438px 425.121px 0px;" id="elgmeitebltct" class="animable"></path><polygon points="659.25 444.04 603.82 438.42 488.88 440.99 519.44 416.35 596.15 412.67 663.22 421.91 659.25 444.04" style="fill: rgb(38, 50, 56); transform-origin: 576.05px 428.355px 0px;" id="elnmzgelsdlcd" class="animable"></polygon><path d="M565.56,428.65c0,.15-10.79.26-24.1.26s-24.09-.11-24.09-.26,10.78-.26,24.09-.26S565.56,428.51,565.56,428.65Z" style="fill: rgb(69, 90, 100); transform-origin: 541.465px 428.65px 0px;" id="elvkh64pjto8" class="animable"></path><polygon points="560.2 414.39 564.14 439.18 571.7 439.18 565.95 414.12 560.2 414.39" id="elqn4jlklnk3" style="transform-origin: 565.95px 426.65px 0px;" class="animable"></polygon><path d="M589.46,439.51l-1.12-10-18.79,2L571,446.15l1.17,0c5.22-.26,26.49-1.68,29.84-3.1C605.79,441.42,589.46,439.51,589.46,439.51Z" style="fill: rgb(20, 158, 203); transform-origin: 586.064px 437.83px 0px;" id="elcrs7u1qqwhc" class="animable"></path><path d="M602.4,442c0,.18-7,1.11-15.65,2.08s-15.69,1.61-15.71,1.43,7-1.1,15.64-2.07S602.38,441.86,602.4,442Z" style="fill: rgb(38, 50, 56); transform-origin: 586.72px 443.76px 0px;" id="elns9m8bqiywd" class="animable"></path><path d="M590,441.52c-.17-.07-.09-.62.25-1.19s.81-.89.94-.78-.07.59-.38,1.11S590.18,441.59,590,441.52Z" style="fill: rgb(38, 50, 56); transform-origin: 590.572px 440.528px 0px;" id="el1wmjwwahjuq" class="animable"></path><path d="M591.29,442c-.17,0-.15-.65.15-1.32s.74-1.09.89-1,0,.63-.3,1.25S591.46,442.09,591.29,442Z" style="fill: rgb(38, 50, 56); transform-origin: 591.786px 440.839px 0px;" id="ele157jjxlaup" class="animable"></path><path d="M576.68,444.84c-.06.06-.38-.17-.84-.57a12.36,12.36,0,0,0-1.83-1.39,4.52,4.52,0,0,0-2.12-.61c-.57,0-.93.11-1,0s.27-.35.93-.47a3.8,3.8,0,0,1,2.48.5,6.63,6.63,0,0,1,1.84,1.64C576.56,444.45,576.75,444.78,576.68,444.84Z" style="fill: rgb(38, 50, 56); transform-origin: 573.788px 443.306px 0px;" id="elc0y9w9equy4" class="animable"></path><path d="M589.86,439.63c.11.14-.18.53-.69.78s-1,.23-1,.06.31-.42.76-.64S589.76,439.48,589.86,439.63Z" style="fill: rgb(38, 50, 56); transform-origin: 589.027px 440.082px 0px;" id="elufhwnb5wbpe" class="animable"></path><path d="M589.46,438.69c0,.18-.45.38-1.08.46s-1.15,0-1.16-.18.48-.38,1.08-.46S589.42,438.52,589.46,438.69Z" style="fill: rgb(38, 50, 56); transform-origin: 588.34px 438.831px 0px;" id="elteu4uismwwl" class="animable"></path><path d="M479.52,325.12l16-.29c.22-1.85.53-9.06.53-9.06s6.7-.63,7.19-7.25.28-21.94.28-21.94h0a23.11,23.11,0,0,0-23.35,1.48l-1,.7Z" style="fill: rgb(183, 136, 118); transform-origin: 491.367px 304.61px 0px;" id="eltvqtaxbpt" class="animable"></path><path d="M501.31,297.89a1,1,0,0,1,0-1.37,1,1,0,1,1,0,1.37Z" style="fill: rgb(38, 50, 56); transform-origin: 502.039px 297.205px 0px;" id="elj559am93u9" class="animable"></path><path d="M503,296.47c-.11.11-.73-.43-1.64-.49s-1.61.37-1.7.25.07-.26.37-.46a2.26,2.26,0,0,1,1.37-.34,2.2,2.2,0,0,1,1.3.53C503,296.21,503.07,296.42,503,296.47Z" style="fill: rgb(38, 50, 56); transform-origin: 501.33px 295.954px 0px;" id="elhbjxo93ftud" class="animable"></path><path d="M492.44,296.62a1,1,0,0,1-1.12,1.58,1,1,0,1,1,1.12-1.58Z" style="fill: rgb(38, 50, 56); transform-origin: 491.676px 297.266px 0px;" id="el7pg2zl4kstb" class="animable"></path><path d="M493,296.66c-.11.11-.73-.43-1.65-.49s-1.6.37-1.7.25.07-.26.38-.46a2.25,2.25,0,0,1,2.67.2C493,296.4,493.09,296.62,493,296.66Z" style="fill: rgb(38, 50, 56); transform-origin: 491.327px 296.144px 0px;" id="elqwjuel70bz" class="animable"></path><path d="M496.24,304.43a4.44,4.44,0,0,1,1.49-.22c.24,0,.44-.06.46-.18a1.27,1.27,0,0,0-.13-.7l-.61-1.9a25.64,25.64,0,0,1-1.26-5,25,25,0,0,1,1.76,4.83c.2.66.38,1.29.57,1.91a1.51,1.51,0,0,1,.07,1,.65.65,0,0,1-.44.36,1.52,1.52,0,0,1-.41,0A4.56,4.56,0,0,1,496.24,304.43Z" style="fill: rgb(38, 50, 56); transform-origin: 497.417px 300.491px 0px;" id="elu4tby6ud62" class="animable"></path><path d="M493.21,305.26c-.92-.63,2.53,1.55,4.4,1.57a2.55,2.55,0,0,1-3.05.83C492.62,306.81,493.21,305.26,493.21,305.26Z" style="fill: rgb(255, 255, 255); transform-origin: 495.333px 306.505px 0px;" id="elcnlbzai3cl" class="animable"></path><path d="M496.09,315.67a15.48,15.48,0,0,1-8.5-3s1.75,4.9,8.41,4.71Z" style="fill: rgb(163, 105, 87); transform-origin: 491.84px 315.028px 0px;" id="elqtcrjatfcj" class="animable"></path><path d="M504,284.19a2.49,2.49,0,1,0-1.37-4.62,7.31,7.31,0,0,0,1.9-2.39,2.51,2.51,0,0,0-.47-2.83,2.8,2.8,0,0,0-2.87-.18c-1.41.61-2.52,1.8-4,2.3s-3.06.25-4.61.32a8.2,8.2,0,0,0-4.78,1.65,5.49,5.49,0,0,0-2.13,4.46c-2.17-.26-4.57-.29-6.28,1.06a6.25,6.25,0,0,0-2.09,4.9,18.69,18.69,0,0,0,1.3,5.35h0a3.69,3.69,0,0,0,.66,1.38l.81,4.76,2.95-.06-.19-9.9s-.3-4.18,3.3-3.81,8.47,4.42,15.46,3.39a7.59,7.59,0,0,0,3.26-.93,3.22,3.22,0,0,0,1.5-2.9A2.19,2.19,0,0,0,504,284.19Z" style="fill: rgb(38, 50, 56); transform-origin: 491.852px 287.104px 0px;" id="elqvgcb1eypd" class="animable"></path><path d="M480.44,294.64c-.15-.05-4.93-.67-4.48,5s6,3.32,6,3.16S480.44,294.64,480.44,294.64Z" style="fill: rgb(183, 136, 118); transform-origin: 478.945px 299.007px 0px;" id="el8rx7c7alcki" class="animable"></path><path d="M480.08,300.93s-.1.07-.26.16a1,1,0,0,1-.73.08,2.45,2.45,0,0,1-1.3-2.09,3.18,3.18,0,0,1,.16-1.43,1.14,1.14,0,0,1,.68-.82.5.5,0,0,1,.6.23c.09.15.06.26.09.27s.12-.1.05-.33a.59.59,0,0,0-.25-.34.72.72,0,0,0-.55-.1,1.42,1.42,0,0,0-1,1,3.22,3.22,0,0,0-.21,1.6,2.55,2.55,0,0,0,1.62,2.32,1.05,1.05,0,0,0,.89-.22C480.08,301.06,480.1,300.94,480.08,300.93Z" style="fill: rgb(163, 105, 87); transform-origin: 478.711px 299.023px 0px;" id="el7ycfiycvbjq" class="animable"></path><path d="M466.54,424c3,4.47,21.19,31.85,42.91,11.94C537.12,410.6,559,388.4,559,388.4l8.22,50.15,25.76-1.4s-10-74.67-16.38-81.46c-7.09-7.58-13.61-6.94-69.29,37Z" style="fill: rgb(69, 90, 100); transform-origin: 529.76px 397.569px 0px;" id="elru2owi1jfe" class="animable"></path><polygon points="558.68 338.96 582.74 321.4 583.92 323.29 560.02 341.06 558.68 338.96" style="fill: rgb(38, 50, 56); transform-origin: 571.3px 331.23px 0px;" id="el504dgv307xq" class="animable"></polygon><path d="M564.63,338.42s3.22-8.4,4-10.19,1.95-4.91,2.41-5,2.14.2,0,5.54,2.6,2.08,2.6,2.08l4.63-3.32s3.66,10.94,1.58,14.24a53.63,53.63,0,0,1-5.49,6.95Z" style="fill: rgb(183, 136, 118); transform-origin: 572.56px 335.969px 0px;" id="el5bmvohvdqj" class="animable"></path><path d="M564.9,337.44c-.48-1.09-31.08,25.93-37.17,26.85l-17.84-23.23s-3.7-5.88-11.65-15.94c-5.14-6.49-19.3-5.14-23,2.77-6.32,13.44-6.4,28.38-9.77,57.45L464,405a69.34,69.34,0,0,0,.19,12.56c.54,4.87,1.64,10,3.9,9.27l40.81-33.73,1.31-15.32c8.58,8.7,11.25,10.52,15.71,9.82,11.23-1.74,50.54-37.09,50.54-37.09S565.37,338.54,564.9,337.44Z" style="fill: rgb(20, 158, 203); transform-origin: 520.131px 373.947px 0px;" id="eluo6upuc4kj" class="animable"></path><path d="M571.19,355.42a11.47,11.47,0,0,1-2.19-1.71,48.59,48.59,0,0,1-4.69-4.81,47.28,47.28,0,0,1-4-5.4,13.06,13.06,0,0,1-1.35-2.44,18.28,18.28,0,0,1,1.65,2.23c1,1.39,2.4,3.29,4.09,5.27s3.33,3.68,4.55,4.88A19.7,19.7,0,0,1,571.19,355.42Z" style="fill: rgb(38, 50, 56); transform-origin: 565.075px 348.24px 0px;" id="elw42rfftc06" class="animable"></path><path d="M526,373.5a21.42,21.42,0,0,1,.56-4.65,21.92,21.92,0,0,1,1.08-4.56,21.36,21.36,0,0,1-.56,4.65A21.71,21.71,0,0,1,526,373.5Z" style="fill: rgb(38, 50, 56); transform-origin: 526.82px 368.895px 0px;" id="eliazk0hnxu4" class="animable"></path><path d="M529.9,372.54a17,17,0,0,1-1.36-4,18.24,18.24,0,0,1-.85-4.13,17,17,0,0,1,1.36,4A18.45,18.45,0,0,1,529.9,372.54Z" style="fill: rgb(38, 50, 56); transform-origin: 528.795px 368.475px 0px;" id="elerq85lh48ts" class="animable"></path><path d="M485.72,345.14a10.56,10.56,0,0,1,1,1.29l2.66,3.62c2.25,3.05,5.39,7.25,8.9,11.84l9.05,11.74,2.73,3.57a10.36,10.36,0,0,1,1,1.35,10.69,10.69,0,0,1-1.11-1.23c-.69-.81-1.66-2-2.86-3.46-2.39-2.95-5.66-7.05-9.17-11.65s-6.61-8.84-8.78-11.95c-1.09-1.55-2-2.82-2.54-3.71A10.33,10.33,0,0,1,485.72,345.14Z" style="fill: rgb(38, 50, 56); transform-origin: 498.39px 361.845px 0px;" id="el3ik7gp62qwe" class="animable"></path><path d="M480.5,364.9a12.74,12.74,0,0,1-2.87-2.22,13.13,13.13,0,0,1-2.53-2.62,12.54,12.54,0,0,1,2.88,2.23A12.39,12.39,0,0,1,480.5,364.9Z" style="fill: rgb(38, 50, 56); transform-origin: 477.8px 362.48px 0px;" id="el2b4m5o1fj0c" class="animable"></path><path d="M477,376.17a25.16,25.16,0,0,1-4,5.94,12.24,12.24,0,0,1,1.79-3.12A12.56,12.56,0,0,1,477,376.17Z" style="fill: rgb(38, 50, 56); transform-origin: 475px 379.14px 0px;" id="el5pthgfqoign" class="animable"></path><path d="M481.92,391.72c-.11.09-1-.81-2-2a8.1,8.1,0,0,1-1.62-2.34c.11-.09,1,.81,2,2A8,8,0,0,1,481.92,391.72Z" style="fill: rgb(38, 50, 56); transform-origin: 480.11px 389.55px 0px;" id="elzhn3jdxrly8" class="animable"></path><path d="M472.4,401.69a8.11,8.11,0,0,1-2.24,1.83,8.27,8.27,0,0,1-2.53,1.4,8.11,8.11,0,0,1,2.24-1.83A8.27,8.27,0,0,1,472.4,401.69Z" style="fill: rgb(38, 50, 56); transform-origin: 470.015px 403.305px 0px;" id="elt5pcj7fniw" class="animable"></path><path d="M485.71,404.33a6.53,6.53,0,0,1-2.66-2.13,6.6,6.6,0,0,1-1.67-3c.14-.07.87,1.25,2.06,2.64S485.8,404.2,485.71,404.33Z" style="fill: rgb(38, 50, 56); transform-origin: 483.547px 401.764px 0px;" id="elyfr9fah1oc" class="animable"></path><path d="M498.12,394.91a12.81,12.81,0,0,1-2.56,2.52,12.66,12.66,0,0,1-2.9,2.12,12.77,12.77,0,0,1,2.56-2.52A12.43,12.43,0,0,1,498.12,394.91Z" style="fill: rgb(38, 50, 56); transform-origin: 495.39px 397.23px 0px;" id="elvut5vb7dkzo" class="animable"></path><path d="M472.58,413.1a7.6,7.6,0,0,1-3.81-3.9c.12-.08.87.88,1.92,1.94S472.67,413,472.58,413.1Z" style="fill: rgb(38, 50, 56); transform-origin: 470.678px 411.148px 0px;" id="el8wkkwxur21c" class="animable"></path><path d="M500.33,386a9.57,9.57,0,0,1-5.67,1.22,58.77,58.77,0,0,1,5.67-1.22Z" style="fill: rgb(38, 50, 56); transform-origin: 497.495px 386.632px 0px;" id="el4hpenms15xm" class="animable"></path><path d="M491.09,375.49a17.53,17.53,0,0,1-1,3.56,31.93,31.93,0,0,1-1.17,3.4l-.11,0c0-.06.06-.08.08-.08s0,0,0,.11l-.11,0a15,15,0,0,1,.78-3.52A11,11,0,0,1,491.09,375.49Z" style="fill: rgb(38, 50, 56); transform-origin: 489.935px 378.985px 0px;" id="elhgnprnr69p" class="animable"></path><path d="M495,368.82a11.76,11.76,0,0,1-3-1.82,11.56,11.56,0,0,1-2.65-2.25,12.18,12.18,0,0,1,2.95,1.82A11.76,11.76,0,0,1,495,368.82Z" style="fill: rgb(38, 50, 56); transform-origin: 492.175px 366.785px 0px;" id="elx5gc1zjacd" class="animable"></path><path d="M487,354.12a7.54,7.54,0,0,1-1.48,2.7,7.69,7.69,0,0,1-2.1,2.25,11.94,11.94,0,0,1,1.68-2.56A11.3,11.3,0,0,1,487,354.12Z" style="fill: rgb(38, 50, 56); transform-origin: 485.21px 356.595px 0px;" id="elp6y42o9l31" class="animable"></path><path d="M474.82,352.12a11.5,11.5,0,0,1,0-3.39,11.37,11.37,0,0,1,.54-3.34,10.66,10.66,0,0,1,0,3.38A10.83,10.83,0,0,1,474.82,352.12Z" style="fill: rgb(38, 50, 56); transform-origin: 475.095px 348.755px 0px;" id="el15gdyxmgxv3" class="animable"></path><path d="M470.07,374.16a13.56,13.56,0,0,1-.32-3.65,13.32,13.32,0,0,1,.2-3.65,25.74,25.74,0,0,1,.12,7.3Z" style="fill: rgb(38, 50, 56); transform-origin: 469.989px 370.51px 0px;" id="eliqai5dizsfe" class="animable"></path><path d="M469.41,395.3a5.34,5.34,0,0,1-.89-2.17,5.58,5.58,0,0,1-.4-2.31,10.41,10.41,0,0,1,1.29,4.48Z" style="fill: rgb(38, 50, 56); transform-origin: 468.763px 393.06px 0px;" id="elmbui1fu4pj9" class="animable"></path><path d="M486.25,335.63a23.7,23.7,0,0,1-2.58,2.54,22.07,22.07,0,0,1-2.61,2.51,8.93,8.93,0,0,1,2.25-2.88A8.78,8.78,0,0,1,486.25,335.63Z" style="fill: rgb(38, 50, 56); transform-origin: 483.655px 338.155px 0px;" id="elko7khog2d99" class="animable"></path><path d="M479.1,333.24a10.4,10.4,0,0,1-.12-3.31,10.57,10.57,0,0,1,.4-3.29,10.76,10.76,0,0,1,.12,3.31A10.94,10.94,0,0,1,479.1,333.24Z" style="fill: rgb(38, 50, 56); transform-origin: 479.238px 329.94px 0px;" id="el5save717y2o" class="animable"></path><path d="M496.62,330.86a60.17,60.17,0,0,1-5.44-3.71,12.86,12.86,0,0,1,5.44,3.71Z" style="fill: rgb(38, 50, 56); transform-origin: 493.9px 329.005px 0px;" id="elaw6lzjbszjh" class="animable"></path><path d="M492.81,343.34a12.31,12.31,0,0,1-.33-3.5,12.1,12.1,0,0,1,.19-3.51,23.76,23.76,0,0,1,.14,7Z" style="fill: rgb(38, 50, 56); transform-origin: 492.717px 339.835px 0px;" id="ellj3wez6v1an" class="animable"></path><path d="M503.07,350.64a79,79,0,0,1-6-1.44,10.57,10.57,0,0,1,6,1.44Z" style="fill: rgb(38, 50, 56); transform-origin: 500.07px 349.91px 0px;" id="elxvnazit1gdi" class="animable"></path><path d="M503.77,343.2a16.5,16.5,0,0,1,0-5.89,8.74,8.74,0,0,1,.29,2.94A8.42,8.42,0,0,1,503.77,343.2Z" style="fill: rgb(38, 50, 56); transform-origin: 503.796px 340.255px 0px;" id="el8ybd52e4is" class="animable"></path><path d="M511.59,355.69a13.19,13.19,0,0,1-.43-3.71,13.66,13.66,0,0,1,.1-3.73,27.29,27.29,0,0,1,.33,7.44Z" style="fill: rgb(38, 50, 56); transform-origin: 511.392px 351.97px 0px;" id="elcel028ac3kn" class="animable"></path><path d="M505.58,359.91c-.11.1-.92-.64-1.81-1.64s-1.53-1.9-1.42-2,.92.64,1.81,1.65S505.69,359.82,505.58,359.91Z" style="fill: rgb(38, 50, 56); transform-origin: 503.965px 358.09px 0px;" id="ele4vihppnxo" class="animable"></path><path d="M513.18,365.67a9,9,0,0,1-2.93.48,8.72,8.72,0,0,1-3,0,8.37,8.37,0,0,1,2.92-.48A8.2,8.2,0,0,1,513.18,365.67Z" style="fill: rgb(38, 50, 56); transform-origin: 510.215px 365.905px 0px;" id="elm6l49pnc3x" class="animable"></path><path d="M518.9,368.59a21.41,21.41,0,0,1-.25-6.59,20.65,20.65,0,0,1,.25,6.59Z" style="fill: rgb(38, 50, 56); transform-origin: 518.78px 365.295px 0px;" id="el7jhrq2wpuzd" class="animable"></path><path d="M524.54,379.54a9.66,9.66,0,0,1-3.63,0,9.51,9.51,0,0,1-3.53-.83,19.4,19.4,0,0,1,3.59.32A18.22,18.22,0,0,1,524.54,379.54Z" style="fill: rgb(38, 50, 56); transform-origin: 520.96px 379.211px 0px;" id="elvyu4qr7ffze" class="animable"></path><path d="M534.24,374.49A22.78,22.78,0,0,1,532,381a11.18,11.18,0,0,1,.87-3.32A11.06,11.06,0,0,1,534.24,374.49Z" style="fill: rgb(38, 50, 56); transform-origin: 533.12px 377.745px 0px;" id="el1tb5l8i7s6i" class="animable"></path><path d="M541.23,365.65a18.73,18.73,0,0,1-6-1.67,19.43,19.43,0,0,1,6,1.67Z" style="fill: rgb(38, 50, 56); transform-origin: 538.23px 364.815px 0px;" id="elthq73izs4g" class="animable"></path><path d="M546.85,369a9.68,9.68,0,0,1-2.17,2.27,10,10,0,0,1-2.51,1.89,9.33,9.33,0,0,1,2.17-2.28A9.89,9.89,0,0,1,546.85,369Z" style="fill: rgb(38, 50, 56); transform-origin: 544.51px 371.08px 0px;" id="eler4941615ll" class="animable"></path><path d="M549.1,360.73a8.13,8.13,0,0,1-1-3.21,8,8,0,0,1-.14-3.38,18,18,0,0,1,.65,3.29A17.8,17.8,0,0,1,549.1,360.73Z" style="fill: rgb(38, 50, 56); transform-origin: 548.471px 357.435px 0px;" id="elblyj50tat45" class="animable"></path><path d="M559.8,358.83a384.7,384.7,0,0,1-6.24,6.09,19.31,19.31,0,0,1,6.24-6.09Z" style="fill: rgb(38, 50, 56); transform-origin: 556.68px 361.875px 0px;" id="elzagjt65pxtd" class="animable"></path><path d="M560.86,355a11.33,11.33,0,0,1-3.31-1,11.21,11.21,0,0,1-3.12-1.47,11.54,11.54,0,0,1,3.3,1A11.72,11.72,0,0,1,560.86,355Z" style="fill: rgb(38, 50, 56); transform-origin: 557.645px 353.765px 0px;" id="elrm9be6zbrf" class="animable"></path><path d="M559.84,350.89a8.14,8.14,0,0,1-1.05-2.7,8.27,8.27,0,0,1-.55-2.85,8.14,8.14,0,0,1,1,2.7A8.57,8.57,0,0,1,559.84,350.89Z" style="fill: rgb(38, 50, 56); transform-origin: 559.04px 348.115px 0px;" id="elkba0glnn2rh" class="animable"></path><path d="M503.86,379.7c-.12.09-1-.9-1.88-2.2a8.06,8.06,0,0,1-1.46-2.5,8.16,8.16,0,0,1,1.88,2.2A8.57,8.57,0,0,1,503.86,379.7Z" style="fill: rgb(38, 50, 56); transform-origin: 502.19px 377.353px 0px;" id="eliqg78c179bm" class="animable"></path><path d="M580.1,430.08a2,2,0,0,1-.08-.43q-.06-.45-.18-1.26c-.14-1.13-.36-2.76-.63-4.84-.57-4.2-1.38-10.29-2.59-17.78s-2.82-16.38-5.11-26.14a13.73,13.73,0,0,0-1.19-3.53,11.18,11.18,0,0,0-2.4-2.92,10.37,10.37,0,0,0-7.28-2.36,9.59,9.59,0,0,0-3.86,1.05,25.54,25.54,0,0,0-3.43,2.32l-6.88,5.11c-9.26,6.95-17.93,13.76-25.67,20.15s-14.49,12.37-20.14,17.44c-2.86,2.46-5.91,4.43-9,4.75a9.1,9.1,0,0,1-4.19-.51,12.53,12.53,0,0,1-3.11-1.71,26.25,26.25,0,0,1-3.6-3.31l-.85-.94a2.35,2.35,0,0,1-.28-.34,1.79,1.79,0,0,1,.31.3l.89.91a29.3,29.3,0,0,0,3.65,3.22,13,13,0,0,0,3.07,1.64,8.94,8.94,0,0,0,4.08.45c3-.33,6-2.28,8.8-4.74,5.61-5.09,12.34-11.14,20.08-17.53s16.39-13.25,25.66-20.2l6.88-5.11a26.26,26.26,0,0,1,3.51-2.36,10,10,0,0,1,4.06-1.1,10.86,10.86,0,0,1,7.63,2.49,11.36,11.36,0,0,1,2.51,3.07,14.29,14.29,0,0,1,1.23,3.65c2.27,9.79,3.83,18.7,5,26.19s1.92,13.6,2.43,17.81c.23,2.09.41,3.72.54,4.86,0,.54.09,1,.12,1.27A2.31,2.31,0,0,1,580.1,430.08Z" style="fill: rgb(38, 50, 56); transform-origin: 529.866px 400.184px 0px;" id="elcih2j3i0v1i" class="animable"></path><path d="M591.78,429.52a3.63,3.63,0,0,1-1,.16c-.65.07-1.59.15-2.75.23-2.33.16-5.54.33-9.09.48l-9.09.39-2.76.1a4.29,4.29,0,0,1-1,0,3.64,3.64,0,0,1,1-.18c.65-.08,1.59-.17,2.75-.27,2.33-.19,5.54-.38,9.09-.54l9.1-.33,2.76-.06A4,4,0,0,1,591.78,429.52Z" style="fill: rgb(38, 50, 56); transform-origin: 578.935px 430.194px 0px;" id="el5u20pvdawzk" class="animable"></path><path d="M566.15,380.58a34,34,0,0,1-8.74,9.53c-.1-.12,2-2.07,4.44-4.7S566,380.49,566.15,380.58Z" style="fill: rgb(38, 50, 56); transform-origin: 561.778px 385.344px 0px;" id="el4s9paoxutb8" class="animable"></path><path d="M567.12,383.62a33.77,33.77,0,0,1-4.26,2.77,33.3,33.3,0,0,1-4.4,2.58,19.66,19.66,0,0,1,4.12-3A19.86,19.86,0,0,1,567.12,383.62Z" style="fill: rgb(38, 50, 56); transform-origin: 562.79px 386.295px 0px;" id="elch75jj8sy7" class="animable"></path><path d="M651.37,432.1a2.82,2.82,0,0,1-.61,0L649,432l-6.4-.61-21.09-2.2c-8.24-.86-15.68-1.82-21.09-2.09-2.7-.14-4.9-.13-6.41-.07l-1.74.07a2.5,2.5,0,0,1-.62,0,3.86,3.86,0,0,1,.61-.1c.39-.06,1-.11,1.74-.18a62.54,62.54,0,0,1,6.44-.09c5.44.18,12.89,1.08,21.12,1.94L642.65,431l6.39.77,1.73.23A2.59,2.59,0,0,1,651.37,432.1Z" style="fill: rgb(69, 90, 100); transform-origin: 621.51px 429.401px 0px;" id="elnk158mgcdnc" class="animable"></path><path d="M650.1,443.28c-.14,0,.31-5,1-11.21s1.39-11.16,1.53-11.14-.31,5-1,11.2S650.24,443.29,650.1,443.28Z" style="fill: rgb(69, 90, 100); transform-origin: 651.365px 432.105px 0px;" id="el52b78lngfte" class="animable"></path></g><defs>     <filter id="active" height="200%">         <feMorphology in="SourceAlpha" result="DILATED" operator="dilate" radius="2"></feMorphology>                <feFlood flood-color="#32DFEC" flood-opacity="1" result="PINK"></feFlood>        <feComposite in="PINK" in2="DILATED" operator="in" result="OUTLINE"></feComposite>        <feMerge>            <feMergeNode in="OUTLINE"></feMergeNode>            <feMergeNode in="SourceGraphic"></feMergeNode>        </feMerge>    </filter>    <filter id="hover" height="200%">        <feMorphology in="SourceAlpha" result="DILATED" operator="dilate" radius="2"></feMorphology>                <feFlood flood-color="#ff0000" flood-opacity="0.5" result="PINK"></feFlood>        <feComposite in="PINK" in2="DILATED" operator="in" result="OUTLINE"></feComposite>        <feMerge>            <feMergeNode in="OUTLINE"></feMergeNode>            <feMergeNode in="SourceGraphic"></feMergeNode>        </feMerge>            <feColorMatrix type="matrix" values="0   0   0   0   0                0   1   0   0   0                0   0   0   0   0                0   0   0   1   0 "></feColorMatrix>    </filter></defs></svg>