<svg id="Group_920" data-name="Group 920" xmlns="http://www.w3.org/2000/svg" width="215.215" height="215.215" viewBox="0 0 215.215 215.215">
  <path id="Path_2127" data-name="Path 2127" d="M-194.729,413.743H-336.382a36.781,36.781,0,0,0-36.781,36.781V592.177a36.782,36.782,0,0,0,36.781,36.781h141.653a36.781,36.781,0,0,0,36.781-36.781V450.524A36.78,36.78,0,0,0-194.729,413.743ZM-203.866,527a85.389,85.389,0,0,1-1.878,18.239l-.009.043a69.76,69.76,0,0,1-6.081,17.057,63.261,63.261,0,0,1-10.3,14.573l-.092.1a61.285,61.285,0,0,1-14.08,10.967l-.078.044a64.716,64.716,0,0,1-16.979,6.57l-.281.064a82.058,82.058,0,0,1-17.979,2l-.5,0h-.028a89.051,89.051,0,0,1-11.721-.777,81.957,81.957,0,0,1-11.523-2.392,70.336,70.336,0,0,1-11.186-4.225,65.331,65.331,0,0,1-11.6-7.133,55.969,55.969,0,0,1-8.415-8.088l-.036-.042a52.87,52.87,0,0,1-6.633-9.834l-.224-.427a56.216,56.216,0,0,1-4.769-12.751,64.716,64.716,0,0,1-1.431-8.236h0a21.524,21.524,0,0,1,21.4-23.823h18.669a21.521,21.521,0,0,1,20.955,16.628h0v.009c.035.146.064.294.1.441a2.366,2.366,0,0,0,1.336,1.438c.257.087.516.169.775.241a3.156,3.156,0,0,1,.349.087c.313.078.627.148.942.2a18.884,18.884,0,0,0,3.408.278h.16a13.532,13.532,0,0,0,1.478-.075c2.554-.429,3.725-2.7,4.225-4.185a19.634,19.634,0,0,0,.622-2.949,32.515,32.515,0,0,0,.269-4.27V476.376a30.567,30.567,0,0,1,30.567-30.567h0a30.567,30.567,0,0,1,30.567,30.567Z" transform="translate(373.163 -413.743)" fill="#f27c10"/>
  <path id="Path_2128" data-name="Path 2128" d="M-256.283,442.113a13.351,13.351,0,0,0-13.35,13.35v50.331a49.538,49.538,0,0,1-.415,6.556,36.783,36.783,0,0,1-1.213,5.707,29.108,29.108,0,0,1-1.963,4.9,25.144,25.144,0,0,1-2.707,4.178,18.825,18.825,0,0,1-3.271,3.212,18.285,18.285,0,0,1-3.909,2.284,22.361,22.361,0,0,1-4.737,1.419,31.16,31.16,0,0,1-5.562.5c-.082,0-.165,0-.25,0a37.687,37.687,0,0,1-6.261-.525,30.751,30.751,0,0,1-5.672-1.546,20.2,20.2,0,0,1-4.605-2.463,18.9,18.9,0,0,1-3.667-3.5,15.535,15.535,0,0,1-2.487-4.529c-.377-1.063-.247-.264-.457-1.369h0a6.739,6.739,0,0,0-6.6-5.394h-13.767a6.34,6.34,0,0,0-6.216,7.595h0a47.5,47.5,0,0,0,1.053,6.047,18.126,18.126,0,0,0,2.29,6.017,40.011,40.011,0,0,0,5,7.4,38.558,38.558,0,0,0,6.493,6A48.184,48.184,0,0,0-321,552.806a53.353,53.353,0,0,0,8.46,3.195,64.987,64.987,0,0,0,9.089,1.889,68.875,68.875,0,0,0,9.532.625h.452a64.95,64.95,0,0,0,14.213-1.577,47.038,47.038,0,0,0,12.614-4.857,44.084,44.084,0,0,0,10.143-7.906,45.944,45.944,0,0,0,7.485-10.593,52.567,52.567,0,0,0,4.583-12.852,68.135,68.135,0,0,0,1.5-14.587v-50.68a13.35,13.35,0,0,0-13.35-13.35Z" transform="translate(395.013 -392.83)" fill="#717171"/>
</svg>
